<?xml version="1.0" standalone="no"?>
<!DOCTYPE svg PUBLIC "-//W3C//DTD SVG 20010904//EN"
 "http://www.w3.org/TR/2001/REC-SVG-20010904/DTD/svg10.dtd">
<svg version="1.0" xmlns="http://www.w3.org/2000/svg"
 width="960.000000pt" height="960.000000pt" viewBox="0 0 960.000000 960.000000"
 preserveAspectRatio="xMidYMid meet">
<metadata>
Created by potrace 1.14, written by Peter Selinger 2001-2017
</metadata>
<g transform="translate(0.000000,960.000000) scale(0.100000,-0.100000)"
fill="#000000" stroke="none">
<path d="M6217 7994 c-1 -1 -42 -5 -92 -8 -94 -6 -120 -9 -220 -22 -33 -4 -69
-8 -80 -9 -11 -1 -38 -5 -60 -9 -22 -3 -53 -9 -70 -11 -16 -3 -41 -7 -55 -9
-14 -2 -68 -14 -120 -26 -52 -12 -102 -23 -110 -25 -32 -7 -106 -26 -125 -32
-30 -9 -286 -10 -317 -2 -16 4 -28 5 -28 1 0 -6 -56 -7 -70 -2 -3 1 -9 1 -15
0 -5 -1 -93 -3 -195 -6 -180 -3 -230 -6 -395 -20 -44 -4 -96 -8 -115 -9 -19
-2 -35 -4 -35 -4 0 -1 -23 -4 -52 -6 -28 -2 -64 -6 -80 -9 -15 -3 -53 -9 -83
-12 -60 -7 -61 -7 -135 -19 -27 -5 -57 -10 -65 -10 -8 -1 -33 -5 -55 -10 -22
-4 -49 -9 -60 -12 -11 -2 -40 -8 -65 -14 -25 -5 -54 -12 -65 -14 -17 -3 -76
-16 -135 -30 -21 -5 -223 -60 -287 -78 -28 -8 -56 -18 -62 -21 -6 -4 -19 -9
-28 -11 -28 -5 -194 -64 -238 -84 -22 -10 -51 -22 -65 -26 -14 -4 -47 -17 -75
-30 -151 -70 -160 -73 -203 -65 -23 4 -42 5 -42 2 0 -2 -6 0 -13 5 -6 5 -25
10 -42 12 -16 2 -32 6 -35 10 -3 3 -14 7 -25 8 -23 3 -44 8 -65 15 -8 3 -35
11 -60 18 -25 7 -65 19 -90 27 -25 8 -53 17 -62 19 -21 5 -29 7 -118 31 -36
10 -70 22 -77 26 -13 8 -73 6 -78 -3 -5 -8 118 -70 138 -70 9 0 17 -4 19 -9 2
-7 121 -54 168 -66 8 -3 49 -16 90 -30 41 -15 86 -28 100 -31 14 -3 34 -8 45
-11 23 -8 31 -10 45 -12 23 -3 7 -23 -32 -42 -58 -27 -102 -52 -106 -61 -2 -5
-8 -8 -14 -8 -13 0 -138 -80 -238 -152 -43 -31 -81 -54 -84 -51 -3 4 -6 2 -6
-3 0 -5 -34 -36 -76 -69 -42 -33 -97 -79 -121 -102 -25 -24 -49 -43 -53 -43
-5 0 -10 -3 -12 -7 -1 -5 -23 -19 -48 -32 -100 -53 -419 -272 -428 -293 -2 -5
-8 -8 -13 -8 -8 0 -34 -20 -86 -67 -13 -11 -43 -36 -66 -55 -67 -53 -297 -286
-362 -368 -74 -91 -175 -227 -175 -234 0 -3 -14 -25 -30 -49 -17 -25 -30 -49
-30 -55 0 -6 -3 -12 -8 -14 -4 -1 -19 -25 -33 -53 -14 -27 -30 -59 -36 -70
-16 -28 -51 -108 -69 -158 -9 -23 -20 -51 -24 -62 -13 -28 -51 -155 -56 -185
-3 -14 -7 -32 -10 -40 -3 -8 -7 -26 -9 -40 -2 -14 -7 -41 -10 -60 -26 -139
-26 -434 -1 -600 2 -14 5 -25 6 -25 1 0 3 -13 6 -30 5 -37 12 -70 14 -70 2 0
5 -15 14 -55 8 -33 44 -150 56 -177 6 -13 14 -33 19 -45 4 -13 18 -43 30 -66
11 -24 21 -48 21 -54 0 -5 9 -23 21 -39 11 -16 17 -29 13 -29 -4 0 -1 -8 7
-17 8 -10 21 -31 29 -48 8 -16 19 -33 24 -36 10 -8 11 -54 2 -94 -34 -146 -41
-508 -11 -615 2 -8 6 -31 9 -50 3 -19 8 -46 11 -60 3 -14 8 -36 11 -50 3 -14
10 -43 16 -65 6 -22 12 -44 14 -50 24 -105 178 -415 205 -415 5 0 9 -5 9 -11
0 -6 6 -16 12 -24 7 -7 29 -32 48 -56 19 -23 53 -59 74 -78 22 -20 47 -43 55
-51 50 -48 171 -133 231 -162 14 -7 27 -15 30 -18 13 -14 233 -110 241 -104 5
3 9 0 9 -5 0 -6 3 -10 8 -9 4 1 30 -6 57 -15 100 -34 244 -61 390 -74 148 -12
404 -7 515 11 14 3 43 7 65 10 22 3 49 7 60 10 11 2 56 12 100 21 130 27 311
92 446 159 92 46 131 61 146 55 11 -4 33 -10 49 -13 16 -3 59 -12 95 -20 36
-8 81 -17 100 -20 20 -3 42 -8 50 -10 17 -7 66 -16 99 -20 14 -2 39 -6 55 -10
17 -3 45 -8 63 -11 18 -2 45 -6 60 -9 15 -3 45 -8 67 -12 80 -11 101 -14 135
-18 43 -6 143 -17 190 -21 19 -2 35 -4 35 -5 0 0 20 -2 45 -4 215 -16 261 -19
305 -20 28 -1 55 -5 60 -8 6 -4 17 -3 25 2 8 5 21 5 29 1 17 -8 546 -6 709 3
119 6 259 16 297 21 17 2 57 7 90 10 115 10 220 22 220 25 0 1 16 4 35 5 44 4
115 13 115 15 0 2 19 5 85 14 25 4 52 8 60 11 8 2 33 7 55 10 45 6 41 5 180
36 55 12 108 22 118 22 9 1 17 4 17 7 0 3 10 6 23 7 12 0 51 8 87 18 36 10 72
19 80 20 8 2 15 4 15 5 0 1 7 3 15 5 22 6 64 16 75 19 30 7 132 38 145 43 8 3
23 8 32 9 42 9 337 112 448 157 14 6 27 11 30 11 3 1 34 14 70 30 36 15 88 38
115 49 126 55 445 219 527 273 21 13 40 24 43 24 18 0 417 281 466 329 10 9
37 32 60 51 91 72 419 413 419 434 0 3 8 14 18 24 9 10 24 29 32 42 8 12 20
28 25 34 6 6 28 38 49 71 21 33 46 71 55 85 10 14 30 50 45 80 16 30 34 66 42
80 12 23 56 119 59 130 2 5 7 19 32 80 8 19 17 43 19 53 2 9 6 25 8 35 2 9 11
37 19 62 9 25 18 61 21 80 3 19 8 46 12 60 3 14 7 37 10 53 2 15 6 39 10 55
13 58 12 406 -3 492 -8 47 -16 99 -18 117 -3 17 -10 44 -15 59 -6 15 -8 29 -5
32 2 3 1 10 -4 16 -6 7 -12 23 -15 36 -4 23 -20 75 -34 110 -3 8 -6 17 -6 20
-1 3 -5 11 -9 18 -5 6 -5 12 -2 12 3 0 -2 15 -11 33 -39 75 -45 87 -39 87 4 0
-3 13 -14 29 -12 16 -21 36 -21 44 0 9 -4 18 -9 21 -5 3 -21 29 -36 58 -28 55
-165 266 -188 290 -7 7 -32 38 -56 68 -23 30 -73 88 -109 129 -37 40 -68 78
-70 82 -2 5 -7 9 -12 9 -4 0 -37 28 -72 63 -34 34 -87 82 -117 107 -29 25 -63
53 -75 64 -11 10 -37 30 -56 45 -19 14 -37 28 -40 31 -17 17 -80 60 -89 60 -6
0 -11 4 -11 9 0 8 -178 129 -205 140 -5 2 -12 7 -15 10 -5 6 -35 25 -120 74
-19 11 -57 33 -85 49 -78 45 -390 198 -403 198 -7 0 -12 4 -12 8 0 5 -6 9 -12
9 -7 1 -76 27 -153 58 -169 69 -171 70 -215 85 -19 7 -44 16 -55 20 -37 15
-140 48 -230 75 -49 14 -110 32 -135 40 -44 13 -227 61 -269 70 -11 3 -31 7
-43 11 -13 3 -34 7 -48 10 -14 3 -45 10 -70 15 -59 14 -71 16 -111 23 -19 3
-44 8 -56 11 -56 13 -70 15 -95 17 -33 3 -37 17 -5 19 12 1 38 3 57 5 94 9
184 14 275 15 108 1 305 -10 317 -17 5 -3 8 0 8 5 0 6 -10 12 -22 13 -47 3
-64 5 -88 11 -34 9 -103 17 -262 31 -20 2 -41 7 -47 10 -6 4 -11 2 -11 -4 0
-7 -6 -8 -17 -1 -21 11 -422 9 -440 -2 -8 -5 -13 -3 -13 3 0 6 -5 8 -12 3 -7
-4 -20 -8 -28 -10 -43 -5 -117 -15 -130 -15 -15 -1 -136 9 -220 19 -25 3 -64
5 -87 6 -24 1 -43 4 -43 7 0 4 21 12 48 18 53 14 58 15 125 36 26 8 48 15 50
15 1 -1 22 5 47 12 25 7 50 13 55 15 6 1 51 14 100 29 98 29 300 82 337 89 13
3 24 5 26 7 2 2 6 3 52 12 19 4 46 10 60 13 14 3 36 7 50 8 14 1 30 5 35 8 6
3 33 9 60 12 28 4 79 12 115 17 36 6 88 13 115 15 28 2 66 6 85 9 132 18 518
25 680 11 253 -21 391 -27 363 -16 -13 5 -40 11 -60 14 -21 2 -49 7 -63 10
-26 6 -72 15 -105 20 -11 2 -47 8 -80 14 -33 6 -73 13 -90 16 -16 3 -41 7 -55
10 -30 5 -111 17 -160 22 -19 1 -51 6 -70 9 -19 4 -60 9 -90 11 -30 3 -75 7
-100 10 -25 2 -72 6 -105 9 -60 6 -553 14 -558 9z m-1127 -200 c0 -8 -19 -13
-24 -6 -3 5 1 9 9 9 8 0 15 -2 15 -3z m-70 -14 c0 -5 -8 -10 -17 -10 -15 0
-56 -11 -103 -28 -8 -3 -22 -6 -30 -8 -18 -2 -115 -32 -148 -45 -13 -5 -40
-12 -60 -15 -21 -3 -41 -9 -47 -13 -5 -4 -35 -13 -65 -20 -30 -8 -61 -18 -67
-24 -7 -5 -13 -7 -13 -4 0 3 -15 1 -32 -4 -119 -37 -167 -50 -193 -55 -16 -3
-38 -10 -48 -16 -10 -5 -31 -11 -47 -13 -16 -2 -37 -6 -47 -9 -10 -2 -52 -7
-93 -11 -41 -3 -101 -10 -133 -14 -55 -7 -70 3 -17 12 14 2 32 7 40 10 8 3 49
15 90 27 41 11 89 24 105 29 31 10 113 33 130 37 6 1 39 10 75 19 36 9 72 19
80 21 8 2 44 11 80 19 36 9 74 18 85 21 11 2 34 7 50 10 17 4 37 8 45 9 9 0
21 5 28 9 7 4 16 5 19 2 3 -3 11 -2 17 3 6 5 29 12 51 15 33 5 254 51 263 55
1 1 2 -3 2 -9z m-4485 -4515 c53 -67 271 -287 336 -340 13 -11 49 -40 79 -65
30 -24 63 -52 72 -61 10 -10 26 -20 38 -24 11 -3 20 -10 20 -15 0 -10 323
-227 380 -255 19 -10 37 -21 40 -24 23 -30 656 -333 698 -334 6 0 12 -3 12 -7
0 -4 6 -7 13 -8 6 0 71 -23 142 -50 72 -27 154 -55 183 -62 30 -8 52 -19 52
-27 0 -15 -57 -42 -157 -73 -70 -22 -83 -25 -143 -36 -19 -4 -39 -9 -45 -13
-5 -3 -21 -7 -35 -8 -14 -1 -36 -4 -50 -7 -14 -3 -42 -8 -64 -10 -21 -3 -41
-8 -44 -10 -2 -3 -13 -1 -23 5 -11 5 -19 6 -19 1 0 -5 -65 -9 -145 -9 -86 1
-145 5 -145 11 0 5 -2 7 -5 4 -5 -5 -26 -2 -124 18 -30 6 -184 65 -191 73 -3
3 -26 16 -53 29 -26 13 -70 39 -98 58 -28 19 -55 34 -59 34 -5 0 -10 3 -12 8
-1 4 -27 25 -57 46 -60 43 -69 50 -112 86 -15 14 -47 41 -70 60 -87 74 -180
180 -286 325 -54 75 -140 269 -167 380 -27 109 -34 161 -39 298 -3 101 -1 101
78 2z"/>
</g>
</svg>
