<svg width="40" height="40" viewBox="0 0 40 40" fill="none" xmlns="http://www.w3.org/2000/svg">
<circle cx="20" cy="20" r="20" fill="#FAC1FB"/>
<path d="M20 22.1695C17.87 22.1695 16.13 20.4395 16.13 18.2995C16.13 16.1595 17.87 14.4395 20 14.4395C22.13 14.4395 23.87 16.1695 23.87 18.3095C23.87 20.4495 22.13 22.1695 20 22.1695ZM20 15.9395C18.7 15.9395 17.63 16.9995 17.63 18.3095C17.63 19.6195 18.69 20.6795 20 20.6795C21.31 20.6795 22.37 19.6195 22.37 18.3095C22.37 16.9995 21.3 15.9395 20 15.9395Z" fill="#2B2B2B"/>
<path d="M20.0001 30.76C18.5201 30.76 17.0301 30.2 15.8701 29.09C12.9201 26.25 9.66005 21.72 10.8901 16.33C12.0001 11.44 16.2701 9.25 20.0001 9.25C20.0001 9.25 20.0001 9.25 20.0101 9.25C23.7401 9.25 28.0101 11.44 29.1201 16.34C30.3401 21.73 27.0801 26.25 24.1301 29.09C22.9701 30.2 21.4801 30.76 20.0001 30.76ZM20.0001 10.75C17.0901 10.75 13.3501 12.3 12.3601 16.66C11.2801 21.37 14.2401 25.43 16.9201 28C18.6501 29.67 21.3601 29.67 23.0901 28C25.7601 25.43 28.7201 21.37 27.6601 16.66C26.6601 12.3 22.9101 10.75 20.0001 10.75Z" fill="#2B2B2B"/>
</svg>
