<svg width="40" height="40" viewBox="0 0 40 40" fill="none" xmlns="http://www.w3.org/2000/svg">
<circle cx="20" cy="20" r="20" fill="#FAC1FB"/>
<path d="M24.5416 28.9577C23.6 28.9577 22.6083 28.7327 21.5833 28.2993C20.5833 27.8743 19.575 27.291 18.5916 26.5827C17.6166 25.866 16.675 25.066 15.7833 24.191C14.9 23.2994 14.1 22.3577 13.3916 21.391C12.675 20.391 12.1 19.391 11.6916 18.4243C11.2583 17.391 11.0416 16.391 11.0416 15.4493C11.0416 14.7993 11.1583 14.1827 11.3833 13.6077C11.6166 13.016 11.9916 12.466 12.5 11.991C13.1416 11.3577 13.875 11.041 14.6583 11.041C14.9833 11.041 15.3166 11.116 15.6 11.2493C15.925 11.3993 16.2 11.6243 16.4 11.9243L18.3333 14.6493C18.5083 14.891 18.6416 15.1243 18.7333 15.3577C18.8416 15.6077 18.9 15.8577 18.9 16.0993C18.9 16.416 18.8083 16.7243 18.6333 17.016C18.5083 17.241 18.3166 17.4827 18.075 17.7243L17.5083 18.316C17.5166 18.341 17.525 18.3577 17.5333 18.3743C17.6333 18.5493 17.8333 18.8493 18.2166 19.2993C18.625 19.766 19.0083 20.191 19.3916 20.5827C19.8833 21.066 20.2916 21.4493 20.675 21.766C21.15 22.166 21.4583 22.366 21.6416 22.4577L21.625 22.4993L22.2333 21.8993C22.4916 21.641 22.7416 21.4493 22.9833 21.3243C23.4416 21.041 24.025 20.991 24.6083 21.2327C24.825 21.3243 25.0583 21.4493 25.3083 21.6243L28.075 23.591C28.3833 23.7993 28.6083 24.066 28.7416 24.3827C28.8666 24.6993 28.925 24.991 28.925 25.2827C28.925 25.6827 28.8333 26.0827 28.6583 26.4577C28.4833 26.8327 28.2666 27.1577 27.9916 27.4577C27.5166 27.9827 27 28.3577 26.4 28.5993C25.825 28.8327 25.2 28.9577 24.5416 28.9577ZM14.6583 12.291C14.2 12.291 13.775 12.491 13.3666 12.891C12.9833 13.2493 12.7166 13.641 12.55 14.066C12.375 14.4993 12.2916 14.9577 12.2916 15.4493C12.2916 16.2243 12.475 17.066 12.8416 17.9327C13.2166 18.816 13.7416 19.7327 14.4083 20.6493C15.075 21.566 15.8333 22.4577 16.6666 23.2993C17.5 24.1243 18.4 24.891 19.325 25.566C20.225 26.2243 21.15 26.7577 22.0666 27.141C23.4916 27.7493 24.825 27.891 25.925 27.4327C26.35 27.2577 26.725 26.991 27.0666 26.6077C27.2583 26.3993 27.4083 26.1743 27.5333 25.9077C27.6333 25.6993 27.6833 25.4827 27.6833 25.266C27.6833 25.1327 27.6583 24.9993 27.5916 24.8493C27.5666 24.7993 27.5166 24.7077 27.3583 24.5993L24.5916 22.6327C24.425 22.516 24.275 22.4327 24.1333 22.3743C23.95 22.2993 23.875 22.2243 23.5916 22.3993C23.425 22.4827 23.275 22.6077 23.1083 22.7743L22.475 23.3993C22.15 23.716 21.65 23.791 21.2666 23.6493L21.0416 23.5493C20.7 23.366 20.3 23.0827 19.8583 22.7077C19.4583 22.366 19.025 21.966 18.5 21.4493C18.0916 21.0327 17.6833 20.591 17.2583 20.0993C16.8666 19.641 16.5833 19.2493 16.4083 18.9243L16.3083 18.6743C16.2583 18.4827 16.2416 18.3743 16.2416 18.2577C16.2416 17.9577 16.35 17.691 16.5583 17.4827L17.1833 16.8327C17.35 16.666 17.475 16.5077 17.5583 16.366C17.625 16.2577 17.65 16.166 17.65 16.0827C17.65 16.016 17.625 15.916 17.5833 15.816C17.525 15.6827 17.4333 15.5327 17.3166 15.3743L15.3833 12.641C15.3 12.5243 15.2 12.441 15.075 12.3827C14.9416 12.3243 14.8 12.291 14.6583 12.291ZM21.625 22.5077L21.4916 23.0743L21.7166 22.491C21.675 22.4827 21.6416 22.491 21.625 22.5077Z" fill="#2B2B2B"/>
<path d="M25.4167 18.1257C25.075 18.1257 24.7917 17.8423 24.7917 17.5007C24.7917 17.2007 24.4917 16.5757 23.9917 16.0423C23.5 15.5173 22.9583 15.209 22.5 15.209C22.1583 15.209 21.875 14.9257 21.875 14.584C21.875 14.2423 22.1583 13.959 22.5 13.959C23.3083 13.959 24.1583 14.3923 24.9 15.184C25.5917 15.9257 26.0417 16.834 26.0417 17.5007C26.0417 17.8423 25.7583 18.1257 25.4167 18.1257Z" fill="#2B2B2B"/>
<path d="M28.3333 18.1243C27.9917 18.1243 27.7083 17.841 27.7083 17.4993C27.7083 14.6243 25.375 12.291 22.5 12.291C22.1583 12.291 21.875 12.0077 21.875 11.666C21.875 11.3243 22.1583 11.041 22.5 11.041C26.0583 11.041 28.9583 13.941 28.9583 17.4993C28.9583 17.841 28.675 18.1243 28.3333 18.1243Z" fill="#2B2B2B"/>
</svg>
