<svg width="40" height="40" viewBox="0 0 40 40" fill="none" xmlns="http://www.w3.org/2000/svg">
<circle cx="20" cy="20" r="20" fill="#FAC1FB"/>
<path d="M20.1499 27.35C19.7399 27.35 19.3999 27.01 19.3999 26.6V24.5C19.3999 24.09 19.7399 23.75 20.1499 23.75C20.5599 23.75 20.8999 24.09 20.8999 24.5V26.6C20.8999 27.01 20.5599 27.35 20.1499 27.35Z" fill="#2B2B2B"/>
<path d="M25.8999 30.75H14.3999V29C14.3999 27.48 15.6299 26.25 17.1499 26.25H23.1499C24.6699 26.25 25.8999 27.48 25.8999 29V30.75ZM15.8999 29.25H24.3999V29C24.3999 28.31 23.8399 27.75 23.1499 27.75H17.1499C16.4599 27.75 15.8999 28.31 15.8999 29V29.25Z" fill="#2B2B2B"/>
<path d="M26.1499 30.75H14.1499C13.7399 30.75 13.3999 30.41 13.3999 30C13.3999 29.59 13.7399 29.25 14.1499 29.25H26.1499C26.5599 29.25 26.8999 29.59 26.8999 30C26.8999 30.41 26.5599 30.75 26.1499 30.75Z" fill="#2B2B2B"/>
<path d="M26.43 20.4405C26.22 20.4405 26.01 20.3505 25.86 20.1805C25.67 19.9605 25.62 19.6505 25.74 19.3905C26.08 18.6105 26.25 17.7805 26.25 16.9105V13.9105C26.25 13.5605 26.19 13.2205 26.07 12.8605C26.06 12.8305 26.05 12.7905 26.04 12.7505C26.01 12.6005 26 12.4505 26 12.3105C26 11.9005 26.34 11.5605 26.75 11.5605H27.35C29.14 11.5605 30.6 13.0605 30.6 14.9105C30.6 16.4405 29.97 17.9505 28.88 19.0405C28.86 19.0605 28.8 19.1105 28.79 19.1205C28.2 19.6105 27.53 20.1605 26.63 20.4105C26.56 20.4305 26.5 20.4405 26.43 20.4405ZM27.68 13.0905C27.73 13.3605 27.75 13.6405 27.75 13.9105V16.9105C27.75 17.3205 27.72 17.7105 27.66 18.1105C27.72 18.0605 27.77 18.0205 27.83 17.9705C28.63 17.1705 29.1 16.0505 29.1 14.9105C29.1 14.0105 28.49 13.2505 27.68 13.0905Z" fill="#2B2B2B"/>
<path d="M13.5799 20.3996C13.4999 20.3996 13.4299 20.3896 13.3499 20.3596C12.5299 20.0996 11.7599 19.6196 11.1199 18.9796C9.9699 17.7096 9.3999 16.3196 9.3999 14.8496C9.3999 13.0296 10.8299 11.5996 12.6499 11.5996H13.2999C13.5499 11.5996 13.7899 11.7296 13.9299 11.9396C14.0699 12.1496 14.0899 12.4196 13.9899 12.6496C13.8299 13.0096 13.7499 13.4196 13.7499 13.8496V16.8496C13.7499 17.7096 13.9199 18.5496 14.2699 19.3496C14.3899 19.6196 14.3299 19.9296 14.1399 20.1496C13.9899 20.3096 13.7899 20.3996 13.5799 20.3996ZM12.2999 13.1296C11.4899 13.2896 10.8999 13.9896 10.8999 14.8496C10.8999 15.9396 11.3399 16.9896 12.2099 17.9496C12.2499 17.9996 12.2999 18.0396 12.3499 18.0796C12.2799 17.6696 12.2499 17.2596 12.2499 16.8496V13.8496C12.2499 13.6096 12.2699 13.3696 12.2999 13.1296Z" fill="#2B2B2B"/>
<path d="M20 24.75C15.73 24.75 12.25 21.27 12.25 17V14C12.25 11.38 14.38 9.25 17 9.25H23C25.62 9.25 27.75 11.38 27.75 14V17C27.75 21.27 24.27 24.75 20 24.75ZM17 10.75C15.21 10.75 13.75 12.21 13.75 14V17C13.75 20.45 16.55 23.25 20 23.25C23.45 23.25 26.25 20.45 26.25 17V14C26.25 12.21 24.79 10.75 23 10.75H17Z" fill="#2B2B2B"/>
</svg>
