<svg width="30" height="30" viewBox="0 0 30 30" fill="none" xmlns="http://www.w3.org/2000/svg">
<circle cx="15" cy="15" r="15" fill="#FAC1FB"/>
<path d="M15.1125 20.5125C14.805 20.5125 14.55 20.2575 14.55 19.95V18.375C14.55 18.0675 14.805 17.8125 15.1125 17.8125C15.42 17.8125 15.675 18.0675 15.675 18.375V19.95C15.675 20.2575 15.42 20.5125 15.1125 20.5125Z" fill="#2B2B2B"/>
<path d="M19.425 23.0625H10.8V21.75C10.8 20.61 11.7225 19.6875 12.8625 19.6875H17.3625C18.5025 19.6875 19.425 20.61 19.425 21.75V23.0625ZM11.925 21.9375H18.3V21.75C18.3 21.2325 17.88 20.8125 17.3625 20.8125H12.8625C12.345 20.8125 11.925 21.2325 11.925 21.75V21.9375Z" fill="#2B2B2B"/>
<path d="M19.6125 23.0625H10.6125C10.305 23.0625 10.05 22.8075 10.05 22.5C10.05 22.1925 10.305 21.9375 10.6125 21.9375H19.6125C19.92 21.9375 20.175 22.1925 20.175 22.5C20.175 22.8075 19.92 23.0625 19.6125 23.0625Z" fill="#2B2B2B"/>
<path d="M19.8225 15.3299C19.665 15.3299 19.5075 15.2624 19.395 15.1349C19.2525 14.9699 19.215 14.7374 19.305 14.5424C19.56 13.9574 19.6875 13.3349 19.6875 12.6824V10.4324C19.6875 10.1699 19.6425 9.91492 19.5525 9.64492C19.545 9.62242 19.5375 9.59242 19.53 9.56242C19.5075 9.44992 19.5 9.33742 19.5 9.23242C19.5 8.92492 19.755 8.66992 20.0625 8.66992H20.5125C21.855 8.66992 22.95 9.79492 22.95 11.1824C22.95 12.3299 22.4775 13.4624 21.66 14.2799C21.645 14.2949 21.6 14.3324 21.5925 14.3399C21.15 14.7074 20.6475 15.1199 19.9725 15.3074C19.92 15.3224 19.875 15.3299 19.8225 15.3299ZM20.76 9.81742C20.7975 10.0199 20.8125 10.2299 20.8125 10.4324V12.6824C20.8125 12.9899 20.79 13.2824 20.745 13.5824C20.79 13.5449 20.8275 13.5149 20.8725 13.4774C21.4725 12.8774 21.825 12.0374 21.825 11.1824C21.825 10.5074 21.3675 9.93742 20.76 9.81742Z" fill="#2B2B2B"/>
<path d="M10.185 15.3002C10.125 15.3002 10.0725 15.2927 10.0125 15.2702C9.39749 15.0752 8.81999 14.7152 8.33999 14.2352C7.47749 13.2827 7.04999 12.2402 7.04999 11.1377C7.04999 9.7727 8.12249 8.7002 9.48749 8.7002H9.97499C10.1625 8.7002 10.3425 8.7977 10.4475 8.9552C10.5525 9.1127 10.5675 9.3152 10.4925 9.4877C10.3725 9.7577 10.3125 10.0652 10.3125 10.3877V12.6377C10.3125 13.2827 10.44 13.9127 10.7025 14.5127C10.7925 14.7152 10.7475 14.9477 10.605 15.1127C10.4925 15.2327 10.3425 15.3002 10.185 15.3002ZM9.22499 9.8477C8.61749 9.9677 8.17499 10.4927 8.17499 11.1377C8.17499 11.9552 8.50499 12.7427 9.15749 13.4627C9.18749 13.5002 9.22499 13.5302 9.26249 13.5602C9.20999 13.2527 9.18749 12.9452 9.18749 12.6377V10.3877C9.18749 10.2077 9.20249 10.0277 9.22499 9.8477Z" fill="#2B2B2B"/>
<path d="M15 18.5625C11.7975 18.5625 9.1875 15.9525 9.1875 12.75V10.5C9.1875 8.535 10.785 6.9375 12.75 6.9375H17.25C19.215 6.9375 20.8125 8.535 20.8125 10.5V12.75C20.8125 15.9525 18.2025 18.5625 15 18.5625ZM12.75 8.0625C11.4075 8.0625 10.3125 9.1575 10.3125 10.5V12.75C10.3125 15.3375 12.4125 17.4375 15 17.4375C17.5875 17.4375 19.6875 15.3375 19.6875 12.75V10.5C19.6875 9.1575 18.5925 8.0625 17.25 8.0625H12.75Z" fill="#2B2B2B"/>
</svg>
