<svg width="1081" height="410" viewBox="0 0 1081 410" fill="none" xmlns="http://www.w3.org/2000/svg">
<path d="M1 410V350H161" stroke="url(#paint0_linear_425_535)" stroke-width="2"/>
<path d="M52.5481 322.3L56.2281 321H58.6281V335H55.8681V323.92L53.2281 324.66L52.5481 322.3ZM75.2425 325V332.58H76.5625V337.68H74.0425V335H67.8425V337.68H65.3225V332.58H66.5425C67.1158 331.727 67.4025 330.547 67.4025 329.04V325H75.2425ZM69.3025 332.58H72.7225V327.32H69.9225V329.04C69.9225 330.48 69.7158 331.66 69.3025 332.58ZM87.525 331.06H79.985C80.3183 332.313 81.2583 332.94 82.805 332.94C83.7917 332.94 84.5383 332.607 85.045 331.94L87.125 333.14C86.1383 334.567 84.685 335.28 82.765 335.28C81.1117 335.28 79.785 334.78 78.785 333.78C77.785 332.78 77.285 331.52 77.285 330C77.285 328.507 77.7783 327.253 78.765 326.24C79.7383 325.227 81.005 324.72 82.565 324.72C84.045 324.72 85.2517 325.227 86.185 326.24C87.145 327.253 87.625 328.507 87.625 330C87.625 330.28 87.5917 330.633 87.525 331.06ZM79.945 329.06H85.045C84.8983 328.407 84.5983 327.907 84.145 327.56C83.705 327.213 83.1783 327.04 82.565 327.04C81.8717 327.04 81.2983 327.22 80.845 327.58C80.3917 327.927 80.0917 328.42 79.945 329.06ZM95.9861 328.78V325H98.5661V335H95.9861V331.2H92.0061V335H89.4261V325H92.0061V328.78H95.9861ZM103.51 328.2H105.45C106.583 328.2 107.497 328.513 108.19 329.14C108.883 329.753 109.23 330.573 109.23 331.6C109.23 332.627 108.883 333.453 108.19 334.08C107.497 334.693 106.583 335 105.45 335H100.93V325H103.51V328.2ZM103.51 332.72H105.47C105.83 332.72 106.123 332.62 106.35 332.42C106.59 332.207 106.71 331.933 106.71 331.6C106.71 331.267 106.59 330.993 106.35 330.78C106.123 330.567 105.83 330.46 105.47 330.46H103.51V332.72Z" fill="#2B2B2B"/>
<path d="M51.5334 372.924V369H52.7214V378H51.5334V374.076H46.3494V378H45.1614V369H46.3494V372.924H51.5334ZM59.3916 368.784C60.7356 368.784 61.8096 369.258 62.6136 370.206C63.4416 371.142 63.8556 372.252 63.8556 373.536C63.8556 373.596 63.8436 373.782 63.8196 374.094H55.9176C56.0376 374.994 56.4216 375.714 57.0696 376.254C57.7176 376.794 58.5276 377.064 59.4996 377.064C60.8676 377.064 61.8336 376.554 62.3976 375.534L63.4416 376.146C63.0456 376.794 62.4996 377.304 61.8036 377.676C61.1196 378.036 60.3456 378.216 59.4816 378.216C58.0656 378.216 56.9136 377.772 56.0256 376.884C55.1376 375.996 54.6936 374.868 54.6936 373.5C54.6936 372.144 55.1316 371.022 56.0076 370.134C56.8836 369.234 58.0116 368.784 59.3916 368.784ZM59.3916 369.936C58.4556 369.936 57.6696 370.212 57.0336 370.764C56.4096 371.316 56.0376 372.042 55.9176 372.942H62.6316C62.4996 371.982 62.1336 371.244 61.5336 370.728C60.9096 370.2 60.1956 369.936 59.3916 369.936ZM73.8094 376.542L76.7254 369H77.9854L74.1334 378.828C73.7734 379.74 73.2694 380.442 72.6214 380.934C71.9854 381.438 71.2774 381.66 70.4974 381.6V380.484C71.5774 380.616 72.3994 379.992 72.9634 378.612L73.1974 378.054L69.1654 369H70.4254L73.8094 376.542ZM86.8731 369H88.2411V378H87.0531V370.818L83.9031 375.93H83.7591L80.6091 370.818V378H79.4211V369H80.7891L83.8311 373.932L86.8731 369ZM94.917 368.784C96.261 368.784 97.335 369.258 98.139 370.206C98.967 371.142 99.381 372.252 99.381 373.536C99.381 373.596 99.369 373.782 99.345 374.094H91.443C91.563 374.994 91.947 375.714 92.595 376.254C93.243 376.794 94.053 377.064 95.025 377.064C96.393 377.064 97.359 376.554 97.923 375.534L98.967 376.146C98.571 376.794 98.025 377.304 97.329 377.676C96.645 378.036 95.871 378.216 95.007 378.216C93.591 378.216 92.439 377.772 91.551 376.884C90.663 375.996 90.219 374.868 90.219 373.5C90.219 372.144 90.657 371.022 91.533 370.134C92.409 369.234 93.537 368.784 94.917 368.784ZM94.917 369.936C93.981 369.936 93.195 370.212 92.559 370.764C91.935 371.316 91.563 372.042 91.443 372.942H98.157C98.025 371.982 97.659 371.244 97.059 370.728C96.435 370.2 95.721 369.936 94.917 369.936ZM105.429 368.784C106.773 368.784 107.847 369.258 108.651 370.206C109.479 371.142 109.893 372.252 109.893 373.536C109.893 373.596 109.881 373.782 109.857 374.094H101.955C102.075 374.994 102.459 375.714 103.107 376.254C103.755 376.794 104.565 377.064 105.537 377.064C106.905 377.064 107.871 376.554 108.435 375.534L109.479 376.146C109.083 376.794 108.537 377.304 107.841 377.676C107.157 378.036 106.383 378.216 105.519 378.216C104.103 378.216 102.951 377.772 102.063 376.884C101.175 375.996 100.731 374.868 100.731 373.5C100.731 372.144 101.169 371.022 102.045 370.134C102.921 369.234 104.049 368.784 105.429 368.784ZM105.429 369.936C104.493 369.936 103.707 370.212 103.071 370.764C102.447 371.316 102.075 372.042 101.955 372.942H108.669C108.537 371.982 108.171 371.244 107.571 370.728C106.947 370.2 106.233 369.936 105.429 369.936ZM110.351 369H117.911V370.152H114.725V378H113.537V370.152H110.351V369ZM37.8323 396H45.3923V397.152H42.2063V405H41.0183V397.152H37.8323V396ZM54.2285 397.764V396H55.4165V405H54.2285V403.236C53.4005 404.556 52.1885 405.216 50.5925 405.216C49.3085 405.216 48.2105 404.76 47.2985 403.848C46.3985 402.936 45.9485 401.82 45.9485 400.5C45.9485 399.18 46.3985 398.064 47.2985 397.152C48.2105 396.24 49.3085 395.784 50.5925 395.784C52.1885 395.784 53.4005 396.444 54.2285 397.764ZM48.1625 403.038C48.8465 403.722 49.6865 404.064 50.6825 404.064C51.6785 404.064 52.5185 403.722 53.2025 403.038C53.8865 402.33 54.2285 401.484 54.2285 400.5C54.2285 399.504 53.8865 398.664 53.2025 397.98C52.5185 397.284 51.6785 396.936 50.6825 396.936C49.6865 396.936 48.8465 397.284 48.1625 397.98C47.4785 398.664 47.1365 399.504 47.1365 400.5C47.1365 401.484 47.4785 402.33 48.1625 403.038ZM64.3039 399.924V396H65.4919V405H64.3039V401.076H59.1199V405H57.9319V396H59.1199V399.924H64.3039ZM75.3841 396V403.848H76.8241V407.412H75.6361V405H68.0041V396H69.1921V403.848H74.1961V396H75.3841ZM82.4278 395.784C83.7718 395.784 84.8458 396.258 85.6498 397.206C86.4778 398.142 86.8918 399.252 86.8918 400.536C86.8918 400.596 86.8798 400.782 86.8558 401.094H78.9538C79.0738 401.994 79.4578 402.714 80.1058 403.254C80.7538 403.794 81.5638 404.064 82.5358 404.064C83.9038 404.064 84.8698 403.554 85.4338 402.534L86.4778 403.146C86.0818 403.794 85.5358 404.304 84.8398 404.676C84.1558 405.036 83.3818 405.216 82.5178 405.216C81.1018 405.216 79.9498 404.772 79.0618 403.884C78.1738 402.996 77.7298 401.868 77.7298 400.5C77.7298 399.144 78.1678 398.022 79.0438 397.134C79.9198 396.234 81.0478 395.784 82.4278 395.784ZM82.4278 396.936C81.4918 396.936 80.7058 397.212 80.0698 397.764C79.4458 398.316 79.0738 399.042 78.9538 399.942H85.6678C85.5358 398.982 85.1698 398.244 84.5698 397.728C83.9458 397.2 83.2318 396.936 82.4278 396.936ZM94.5055 400.374C95.4895 400.734 95.9815 401.436 95.9815 402.48C95.9815 403.224 95.7295 403.83 95.2255 404.298C94.7335 404.766 94.0435 405 93.1555 405H88.7815V396H92.7955C93.6595 396 94.3315 396.222 94.8115 396.666C95.3035 397.11 95.5495 397.692 95.5495 398.412C95.5495 399.312 95.2015 399.966 94.5055 400.374ZM92.7955 397.152H89.9695V399.888H92.7955C93.8395 399.888 94.3615 399.42 94.3615 398.484C94.3615 398.064 94.2235 397.74 93.9475 397.512C93.6835 397.272 93.2995 397.152 92.7955 397.152ZM89.9695 403.848H93.1555C93.6835 403.848 94.0855 403.722 94.3615 403.47C94.6495 403.218 94.7935 402.864 94.7935 402.408C94.7935 401.976 94.6495 401.64 94.3615 401.4C94.0855 401.16 93.6835 401.04 93.1555 401.04H89.9695V403.848ZM105.521 397.764V396H106.709V405H105.521V403.236C104.693 404.556 103.481 405.216 101.885 405.216C100.601 405.216 99.5035 404.76 98.5915 403.848C97.6915 402.936 97.2415 401.82 97.2415 400.5C97.2415 399.18 97.6915 398.064 98.5915 397.152C99.5035 396.24 100.601 395.784 101.885 395.784C103.481 395.784 104.693 396.444 105.521 397.764ZM99.4555 403.038C100.139 403.722 100.979 404.064 101.975 404.064C102.971 404.064 103.811 403.722 104.495 403.038C105.179 402.33 105.521 401.484 105.521 400.5C105.521 399.504 105.179 398.664 104.495 397.98C103.811 397.284 102.971 396.936 101.975 396.936C100.979 396.936 100.139 397.284 99.4555 397.98C98.7715 398.664 98.4295 399.504 98.4295 400.5C98.4295 401.484 98.7715 402.33 99.4555 403.038ZM108.145 396H115.705V397.152H112.519V405H111.331V397.152H108.145V396ZM118.341 399.42H120.807C121.635 399.42 122.343 399.684 122.931 400.212C123.519 400.728 123.813 401.394 123.813 402.21C123.813 403.038 123.519 403.71 122.931 404.226C122.367 404.742 121.659 405 120.807 405H117.153V396H118.341V399.42ZM118.341 403.848H120.807C121.323 403.848 121.755 403.698 122.103 403.398C122.451 403.086 122.625 402.69 122.625 402.21C122.625 401.73 122.451 401.34 122.103 401.04C121.755 400.728 121.323 400.572 120.807 400.572H118.341V403.848Z" fill="#2B2B2B"/>
<path d="M161 350V290H321" stroke="url(#paint1_linear_425_535)" stroke-width="2"/>
<path d="M201.445 265.3L205.125 264H207.525V278H204.765V266.92L202.125 267.66L201.445 265.3ZM221.699 271.78V268H224.279V278H221.699V274.2H217.719V278H215.139V268H217.719V271.78H221.699ZM236.363 274.06H228.823C229.156 275.313 230.096 275.94 231.643 275.94C232.63 275.94 233.376 275.607 233.883 274.94L235.963 276.14C234.976 277.567 233.523 278.28 231.603 278.28C229.95 278.28 228.623 277.78 227.623 276.78C226.623 275.78 226.123 274.52 226.123 273C226.123 271.507 226.616 270.253 227.603 269.24C228.576 268.227 229.843 267.72 231.403 267.72C232.883 267.72 234.09 268.227 235.023 269.24C235.983 270.253 236.463 271.507 236.463 273C236.463 273.28 236.43 273.633 236.363 274.06ZM228.783 272.06H233.883C233.736 271.407 233.436 270.907 232.983 270.56C232.543 270.213 232.016 270.04 231.403 270.04C230.71 270.04 230.136 270.22 229.683 270.58C229.23 270.927 228.93 271.42 228.783 272.06ZM246.873 268V275.58H248.193V280.68H245.673V278H239.473V280.68H236.953V275.58H238.173C238.747 274.727 239.033 273.547 239.033 272.04V268H246.873ZM240.933 275.58H244.353V270.32H241.553V272.04C241.553 273.48 241.347 274.66 240.933 275.58ZM259.156 274.06H251.616C251.949 275.313 252.889 275.94 254.436 275.94C255.423 275.94 256.169 275.607 256.676 274.94L258.756 276.14C257.769 277.567 256.316 278.28 254.396 278.28C252.743 278.28 251.416 277.78 250.416 276.78C249.416 275.78 248.916 274.52 248.916 273C248.916 271.507 249.409 270.253 250.396 269.24C251.369 268.227 252.636 267.72 254.196 267.72C255.676 267.72 256.883 268.227 257.816 269.24C258.776 270.253 259.256 271.507 259.256 273C259.256 273.28 259.223 273.633 259.156 274.06ZM251.576 272.06H256.676C256.529 271.407 256.229 270.907 255.776 270.56C255.336 270.213 254.809 270.04 254.196 270.04C253.503 270.04 252.929 270.22 252.476 270.58C252.023 270.927 251.723 271.42 251.576 272.06ZM261.326 268H269.246V278H266.666V270.48H263.906V273.82C263.906 276.9 262.5 278.293 259.686 278V275.58C260.22 275.713 260.626 275.62 260.906 275.3C261.186 274.98 261.326 274.44 261.326 273.68V268ZM274.924 268H279.604V278H277.084V274.88H276.184L273.884 278H270.904L273.404 274.58C272.764 274.313 272.251 273.893 271.864 273.32C271.491 272.747 271.304 272.12 271.304 271.44C271.304 270.52 271.638 269.713 272.304 269.02C272.958 268.34 273.831 268 274.924 268ZM277.084 270.3H275.124C274.751 270.3 274.438 270.413 274.184 270.64C273.944 270.867 273.824 271.16 273.824 271.52C273.824 271.88 273.944 272.167 274.184 272.38C274.438 272.593 274.751 272.7 275.124 272.7H277.084V270.3Z" fill="#2B2B2B"/>
<path d="M184.969 313.482V309H186.157V318H184.969V314.58C184.273 314.94 183.415 315.12 182.395 315.12C181.207 315.12 180.307 314.85 179.695 314.31C179.083 313.758 178.777 312.948 178.777 311.88V309H179.965V311.88C179.965 312.624 180.157 313.164 180.541 313.5C180.937 313.836 181.543 314.004 182.359 314.004C183.271 314.004 184.141 313.83 184.969 313.482ZM192.246 316.542L195.162 309H196.422L192.57 318.828C192.21 319.74 191.706 320.442 191.058 320.934C190.422 321.438 189.714 321.66 188.934 321.6V320.484C190.014 320.616 190.836 319.992 191.4 318.612L191.634 318.054L187.602 309H188.862L192.246 316.542ZM203.582 313.374C204.566 313.734 205.058 314.436 205.058 315.48C205.058 316.224 204.806 316.83 204.302 317.298C203.81 317.766 203.12 318 202.232 318H197.858V309H201.872C202.736 309 203.408 309.222 203.888 309.666C204.38 310.11 204.626 310.692 204.626 311.412C204.626 312.312 204.278 312.966 203.582 313.374ZM201.872 310.152H199.046V312.888H201.872C202.916 312.888 203.438 312.42 203.438 311.484C203.438 311.064 203.3 310.74 203.024 310.512C202.76 310.272 202.376 310.152 201.872 310.152ZM199.046 316.848H202.232C202.76 316.848 203.162 316.722 203.438 316.47C203.726 316.218 203.87 315.864 203.87 315.408C203.87 314.976 203.726 314.64 203.438 314.4C203.162 314.16 202.76 314.04 202.232 314.04H199.046V316.848ZM211.052 318.216C209.696 318.216 208.568 317.766 207.668 316.866C206.768 315.942 206.318 314.82 206.318 313.5C206.318 312.168 206.768 311.052 207.668 310.152C208.568 309.24 209.696 308.784 211.052 308.784C211.94 308.784 212.738 309 213.446 309.432C214.154 309.852 214.67 310.422 214.994 311.142L214.022 311.7C213.782 311.16 213.392 310.734 212.852 310.422C212.324 310.098 211.724 309.936 211.052 309.936C210.056 309.936 209.216 310.284 208.532 310.98C207.848 311.664 207.506 312.504 207.506 313.5C207.506 314.484 207.848 315.33 208.532 316.038C209.216 316.722 210.056 317.064 211.052 317.064C211.712 317.064 212.306 316.908 212.834 316.596C213.374 316.284 213.794 315.852 214.094 315.3L215.084 315.876C214.712 316.596 214.166 317.166 213.446 317.586C212.726 318.006 211.928 318.216 211.052 318.216ZM215.534 309H223.094V310.152H219.908V318H218.72V310.152H215.534V309ZM230.265 313.374C231.249 313.734 231.741 314.436 231.741 315.48C231.741 316.224 231.489 316.83 230.985 317.298C230.493 317.766 229.803 318 228.915 318H224.541V309H228.555C229.419 309 230.091 309.222 230.571 309.666C231.063 310.11 231.309 310.692 231.309 311.412C231.309 312.312 230.961 312.966 230.265 313.374ZM228.555 310.152H225.729V312.888H228.555C229.599 312.888 230.121 312.42 230.121 311.484C230.121 311.064 229.983 310.74 229.707 310.512C229.443 310.272 229.059 310.152 228.555 310.152ZM225.729 316.848H228.915C229.443 316.848 229.845 316.722 230.121 316.47C230.409 316.218 230.553 315.864 230.553 315.408C230.553 314.976 230.409 314.64 230.121 314.4C229.845 314.16 229.443 314.04 228.915 314.04H225.729V316.848ZM236.754 316.542L239.67 309H240.93L237.078 318.828C236.718 319.74 236.214 320.442 235.566 320.934C234.93 321.438 234.222 321.66 233.442 321.6V320.484C234.522 320.616 235.344 319.992 235.908 318.612L236.142 318.054L232.11 309H233.37L236.754 316.542ZM246.172 308.784C247.516 308.784 248.59 309.258 249.394 310.206C250.222 311.142 250.636 312.252 250.636 313.536C250.636 313.596 250.624 313.782 250.6 314.094H242.698C242.818 314.994 243.202 315.714 243.85 316.254C244.498 316.794 245.308 317.064 246.28 317.064C247.648 317.064 248.614 316.554 249.178 315.534L250.222 316.146C249.826 316.794 249.28 317.304 248.584 317.676C247.9 318.036 247.126 318.216 246.262 318.216C244.846 318.216 243.694 317.772 242.806 316.884C241.918 315.996 241.474 314.868 241.474 313.5C241.474 312.144 241.912 311.022 242.788 310.134C243.664 309.234 244.792 308.784 246.172 308.784ZM246.172 309.936C245.236 309.936 244.45 310.212 243.814 310.764C243.19 311.316 242.818 312.042 242.698 312.942H249.412C249.28 311.982 248.914 311.244 248.314 310.728C247.69 310.2 246.976 309.936 246.172 309.936ZM251.094 309H258.654V310.152H255.468V318H254.28V310.152H251.094V309ZM269.426 308.784C270.71 308.784 271.802 309.24 272.702 310.152C273.614 311.064 274.07 312.18 274.07 313.5C274.07 314.82 273.614 315.936 272.702 316.848C271.802 317.76 270.71 318.216 269.426 318.216C267.83 318.216 266.618 317.556 265.79 316.236V321.6H264.602V309H265.79V310.764C266.618 309.444 267.83 308.784 269.426 308.784ZM266.816 316.038C267.5 316.722 268.34 317.064 269.336 317.064C270.332 317.064 271.172 316.722 271.856 316.038C272.54 315.33 272.882 314.484 272.882 313.5C272.882 312.504 272.54 311.664 271.856 310.98C271.172 310.284 270.332 309.936 269.336 309.936C268.34 309.936 267.5 310.284 266.816 310.98C266.132 311.664 265.79 312.504 265.79 313.5C265.79 314.484 266.132 315.33 266.816 316.038ZM277.233 315.93L282.597 309H283.605V318H282.417V311.07L277.053 318H276.045V309H277.233V315.93ZM285.037 309H292.597V310.152H289.411V318H288.223V310.152H285.037V309ZM301.497 309H302.865V318H301.677V310.818L298.527 315.93H298.383L295.233 310.818V318H294.045V309H295.413L298.455 313.932L301.497 309ZM211.745 336H219.305V337.152H216.119V345H214.931V337.152H211.745V336ZM228.142 337.764V336H229.33V345H228.142V343.236C227.314 344.556 226.102 345.216 224.506 345.216C223.222 345.216 222.124 344.76 221.212 343.848C220.312 342.936 219.862 341.82 219.862 340.5C219.862 339.18 220.312 338.064 221.212 337.152C222.124 336.24 223.222 335.784 224.506 335.784C226.102 335.784 227.314 336.444 228.142 337.764ZM222.076 343.038C222.76 343.722 223.6 344.064 224.596 344.064C225.592 344.064 226.432 343.722 227.116 343.038C227.8 342.33 228.142 341.484 228.142 340.5C228.142 339.504 227.8 338.664 227.116 337.98C226.432 337.284 225.592 336.936 224.596 336.936C223.6 336.936 222.76 337.284 222.076 337.98C221.392 338.664 221.05 339.504 221.05 340.5C221.05 341.484 221.392 342.33 222.076 343.038ZM238.217 339.924V336H239.405V345H238.217V341.076H233.033V345H231.845V336H233.033V339.924H238.217ZM249.297 336V343.848H250.737V347.412H249.549V345H241.917V336H243.105V343.848H248.109V336H249.297ZM256.341 335.784C257.685 335.784 258.759 336.258 259.563 337.206C260.391 338.142 260.805 339.252 260.805 340.536C260.805 340.596 260.793 340.782 260.769 341.094H252.867C252.987 341.994 253.371 342.714 254.019 343.254C254.667 343.794 255.477 344.064 256.449 344.064C257.817 344.064 258.783 343.554 259.347 342.534L260.391 343.146C259.995 343.794 259.449 344.304 258.753 344.676C258.069 345.036 257.295 345.216 256.431 345.216C255.015 345.216 253.863 344.772 252.975 343.884C252.087 342.996 251.643 341.868 251.643 340.5C251.643 339.144 252.081 338.022 252.957 337.134C253.833 336.234 254.961 335.784 256.341 335.784ZM256.341 336.936C255.405 336.936 254.619 337.212 253.983 337.764C253.359 338.316 252.987 339.042 252.867 339.942H259.581C259.449 338.982 259.083 338.244 258.483 337.728C257.859 337.2 257.145 336.936 256.341 336.936ZM268.419 340.374C269.403 340.734 269.895 341.436 269.895 342.48C269.895 343.224 269.643 343.83 269.139 344.298C268.647 344.766 267.957 345 267.069 345H262.695V336H266.709C267.573 336 268.245 336.222 268.725 336.666C269.217 337.11 269.463 337.692 269.463 338.412C269.463 339.312 269.115 339.966 268.419 340.374ZM266.709 337.152H263.883V339.888H266.709C267.753 339.888 268.275 339.42 268.275 338.484C268.275 338.064 268.137 337.74 267.861 337.512C267.597 337.272 267.213 337.152 266.709 337.152ZM263.883 343.848H267.069C267.597 343.848 267.999 343.722 268.275 343.47C268.563 343.218 268.707 342.864 268.707 342.408C268.707 341.976 268.563 341.64 268.275 341.4C267.999 341.16 267.597 341.04 267.069 341.04H263.883V343.848Z" fill="#2B2B2B"/>
<path d="M321 290V230H541" stroke="url(#paint2_linear_425_535)" stroke-width="2"/>
<path d="M396.21 202.3L399.89 201H402.29V215H399.53V203.92L396.89 204.66L396.21 202.3ZM417.765 205H420.305V215H417.805V209.16L415.265 213.16H414.945L412.385 209.12V215H409.905V205H412.445L415.105 209.2L417.765 205ZM432.379 211.06H424.839C425.172 212.313 426.112 212.94 427.659 212.94C428.645 212.94 429.392 212.607 429.899 211.94L431.979 213.14C430.992 214.567 429.539 215.28 427.619 215.28C425.965 215.28 424.639 214.78 423.639 213.78C422.639 212.78 422.139 211.52 422.139 210C422.139 208.507 422.632 207.253 423.619 206.24C424.592 205.227 425.859 204.72 427.419 204.72C428.899 204.72 430.105 205.227 431.039 206.24C431.999 207.253 432.479 208.507 432.479 210C432.479 210.28 432.445 210.633 432.379 211.06ZM424.799 209.06H429.899C429.752 208.407 429.452 207.907 428.999 207.56C428.559 207.213 428.032 207.04 427.419 207.04C426.725 207.04 426.152 207.22 425.699 207.58C425.245 207.927 424.945 208.42 424.799 209.06ZM438.961 215.28C437.455 215.28 436.195 214.773 435.181 213.76C434.181 212.747 433.681 211.493 433.681 210C433.681 208.507 434.181 207.253 435.181 206.24C436.195 205.227 437.455 204.72 438.961 204.72C439.935 204.72 440.821 204.953 441.621 205.42C442.421 205.887 443.028 206.513 443.441 207.3L441.221 208.6C441.021 208.187 440.715 207.86 440.301 207.62C439.901 207.38 439.448 207.26 438.941 207.26C438.168 207.26 437.528 207.52 437.021 208.04C436.515 208.547 436.261 209.2 436.261 210C436.261 210.773 436.515 211.427 437.021 211.96C437.528 212.467 438.168 212.72 438.941 212.72C439.461 212.72 439.921 212.607 440.321 212.38C440.735 212.14 441.041 211.813 441.241 211.4L443.481 212.68C443.041 213.48 442.415 214.113 441.601 214.58C440.801 215.047 439.921 215.28 438.961 215.28ZM448.049 205H452.729V215H450.209V211.88H449.309L447.009 215H444.029L446.529 211.58C445.889 211.313 445.376 210.893 444.989 210.32C444.616 209.747 444.429 209.12 444.429 208.44C444.429 207.52 444.763 206.713 445.429 206.02C446.083 205.34 446.956 205 448.049 205ZM450.209 207.3H448.249C447.876 207.3 447.563 207.413 447.309 207.64C447.069 207.867 446.949 208.16 446.949 208.52C446.949 208.88 447.069 209.167 447.309 209.38C447.563 209.593 447.876 209.7 448.249 209.7H450.209V207.3ZM463.88 205V212.58H465.56V217.68H463.04V215H455.08V205H457.66V212.58H461.3V205H463.88Z" fill="#2B2B2B"/>
<path d="M361.124 253.374C362.108 253.734 362.6 254.436 362.6 255.48C362.6 256.224 362.348 256.83 361.844 257.298C361.352 257.766 360.662 258 359.774 258H355.4V249H359.414C360.278 249 360.95 249.222 361.43 249.666C361.922 250.11 362.168 250.692 362.168 251.412C362.168 252.312 361.82 252.966 361.124 253.374ZM359.414 250.152H356.588V252.888H359.414C360.458 252.888 360.98 252.42 360.98 251.484C360.98 251.064 360.842 250.74 360.566 250.512C360.302 250.272 359.918 250.152 359.414 250.152ZM356.588 256.848H359.774C360.302 256.848 360.704 256.722 360.98 256.47C361.268 256.218 361.412 255.864 361.412 255.408C361.412 254.976 361.268 254.64 360.98 254.4C360.704 254.16 360.302 254.04 359.774 254.04H356.588V256.848ZM364.984 249H371.428V258H370.24V250.152H366.172V254.166C366.172 255.666 365.884 256.698 365.308 257.262C364.744 257.826 363.964 258.072 362.968 258V256.884C363.664 256.956 364.174 256.788 364.498 256.38C364.822 255.972 364.984 255.234 364.984 254.166V249ZM381.685 250.764V249H382.873V258H381.685V256.236C380.857 257.556 379.645 258.216 378.049 258.216C376.765 258.216 375.667 257.76 374.755 256.848C373.855 255.936 373.405 254.82 373.405 253.5C373.405 252.18 373.855 251.064 374.755 250.152C375.667 249.24 376.765 248.784 378.049 248.784C379.645 248.784 380.857 249.444 381.685 250.764ZM375.619 256.038C376.303 256.722 377.143 257.064 378.139 257.064C379.135 257.064 379.975 256.722 380.659 256.038C381.343 255.33 381.685 254.484 381.685 253.5C381.685 252.504 381.343 251.664 380.659 250.98C379.975 250.284 379.135 249.936 378.139 249.936C377.143 249.936 376.303 250.284 375.619 250.98C374.935 251.664 374.593 252.504 374.593 253.5C374.593 254.484 374.935 255.33 375.619 256.038ZM392.948 249V256.848H394.208V260.412H393.02V258H385.676V260.412H384.488V256.848H385.586C386.198 256.032 386.504 254.898 386.504 253.446V249H392.948ZM387.026 256.848H391.76V250.152H387.692V253.446C387.692 254.838 387.47 255.972 387.026 256.848ZM399.812 248.784C401.156 248.784 402.23 249.258 403.034 250.206C403.862 251.142 404.276 252.252 404.276 253.536C404.276 253.596 404.264 253.782 404.24 254.094H396.338C396.458 254.994 396.842 255.714 397.49 256.254C398.138 256.794 398.948 257.064 399.92 257.064C401.288 257.064 402.254 256.554 402.818 255.534L403.862 256.146C403.466 256.794 402.92 257.304 402.224 257.676C401.54 258.036 400.766 258.216 399.902 258.216C398.486 258.216 397.334 257.772 396.446 256.884C395.558 255.996 395.114 254.868 395.114 253.5C395.114 252.144 395.552 251.022 396.428 250.134C397.304 249.234 398.432 248.784 399.812 248.784ZM399.812 249.936C398.876 249.936 398.09 250.212 397.454 250.764C396.83 251.316 396.458 252.042 396.338 252.942H403.052C402.92 251.982 402.554 251.244 401.954 250.728C401.33 250.2 400.616 249.936 399.812 249.936ZM410.323 248.784C411.667 248.784 412.741 249.258 413.545 250.206C414.373 251.142 414.787 252.252 414.787 253.536C414.787 253.596 414.775 253.782 414.751 254.094H406.849C406.969 254.994 407.353 255.714 408.001 256.254C408.649 256.794 409.459 257.064 410.431 257.064C411.799 257.064 412.765 256.554 413.329 255.534L414.373 256.146C413.977 256.794 413.431 257.304 412.735 257.676C412.051 258.036 411.277 258.216 410.413 258.216C408.997 258.216 407.845 257.772 406.957 256.884C406.069 255.996 405.625 254.868 405.625 253.5C405.625 252.144 406.063 251.022 406.939 250.134C407.815 249.234 408.943 248.784 410.323 248.784ZM410.323 249.936C409.387 249.936 408.601 250.212 407.965 250.764C407.341 251.316 406.969 252.042 406.849 252.942H413.563C413.431 251.982 413.065 251.244 412.465 250.728C411.841 250.2 411.127 249.936 410.323 249.936ZM415.245 249H422.805V250.152H419.619V258H418.431V250.152H415.245V249ZM427.673 249H435.233V250.152H432.047V258H430.859V250.152H427.673V249ZM440.487 248.784C441.831 248.784 442.905 249.258 443.709 250.206C444.537 251.142 444.951 252.252 444.951 253.536C444.951 253.596 444.939 253.782 444.915 254.094H437.013C437.133 254.994 437.517 255.714 438.165 256.254C438.813 256.794 439.623 257.064 440.595 257.064C441.963 257.064 442.929 256.554 443.493 255.534L444.537 256.146C444.141 256.794 443.595 257.304 442.899 257.676C442.215 258.036 441.441 258.216 440.577 258.216C439.161 258.216 438.009 257.772 437.121 256.884C436.233 255.996 435.789 254.868 435.789 253.5C435.789 252.144 436.227 251.022 437.103 250.134C437.979 249.234 439.107 248.784 440.487 248.784ZM440.487 249.936C439.551 249.936 438.765 250.212 438.129 250.764C437.505 251.316 437.133 252.042 437.013 252.942H443.727C443.595 251.982 443.229 251.244 442.629 250.728C442.005 250.2 441.291 249.936 440.487 249.936ZM450.539 253.338L454.049 258H452.627L449.819 254.292L447.011 258H445.589L449.117 253.338L445.823 249H447.245L449.819 252.402L452.393 249H453.815L450.539 253.338ZM462.037 252.924V249H463.225V258H462.037V254.076H456.853V258H455.665V249H456.853V252.924H462.037ZM466.926 255.93L472.29 249H473.298V258H472.11V251.07L466.746 258H465.738V249H466.926V255.93ZM478.258 253.32L483.082 258H481.498L476.998 253.662V258H475.81V249H476.998V252.978L481.282 249H482.902L478.258 253.32ZM491.35 256.866C490.426 257.766 489.31 258.216 488.002 258.216C486.67 258.216 485.548 257.766 484.636 256.866C483.724 255.954 483.268 254.832 483.268 253.5C483.268 252.168 483.724 251.052 484.636 250.152C485.548 249.24 486.67 248.784 488.002 248.784C489.322 248.784 490.438 249.24 491.35 250.152C492.274 251.052 492.736 252.168 492.736 253.5C492.736 254.82 492.274 255.942 491.35 256.866ZM485.482 256.038C486.166 256.722 487.006 257.064 488.002 257.064C488.998 257.064 489.838 256.722 490.522 256.038C491.206 255.33 491.548 254.484 491.548 253.5C491.548 252.504 491.206 251.664 490.522 250.98C489.838 250.284 488.998 249.936 488.002 249.936C487.006 249.936 486.166 250.284 485.482 250.98C484.798 251.664 484.456 252.504 484.456 253.5C484.456 254.484 484.798 255.33 485.482 256.038ZM500.844 247.56H496.164V246.516H500.844V247.56ZM495.912 255.93L501.276 249H502.284V258H501.096V251.07L495.732 258H494.724V249H495.912V255.93ZM505.336 256.47H506.776L505.696 260.52H504.616L505.336 256.47ZM336.244 283.542L339.16 276H340.42L336.568 285.828C336.208 286.74 335.704 287.442 335.056 287.934C334.42 288.438 333.712 288.66 332.932 288.6V287.484C334.012 287.616 334.834 286.992 335.398 285.612L335.632 285.054L331.6 276H332.86L336.244 283.542ZM347.58 280.374C348.564 280.734 349.056 281.436 349.056 282.48C349.056 283.224 348.804 283.83 348.3 284.298C347.808 284.766 347.118 285 346.23 285H341.856V276H345.87C346.734 276 347.406 276.222 347.886 276.666C348.378 277.11 348.624 277.692 348.624 278.412C348.624 279.312 348.276 279.966 347.58 280.374ZM345.87 277.152H343.044V279.888H345.87C346.914 279.888 347.436 279.42 347.436 278.484C347.436 278.064 347.298 277.74 347.022 277.512C346.758 277.272 346.374 277.152 345.87 277.152ZM343.044 283.848H346.23C346.758 283.848 347.16 283.722 347.436 283.47C347.724 283.218 347.868 282.864 347.868 282.408C347.868 281.976 347.724 281.64 347.436 281.4C347.16 281.16 346.758 281.04 346.23 281.04H343.044V283.848ZM355.014 275.784C356.358 275.784 357.432 276.258 358.236 277.206C359.064 278.142 359.478 279.252 359.478 280.536C359.478 280.596 359.466 280.782 359.442 281.094H351.54C351.66 281.994 352.044 282.714 352.692 283.254C353.34 283.794 354.15 284.064 355.122 284.064C356.49 284.064 357.456 283.554 358.02 282.534L359.064 283.146C358.668 283.794 358.122 284.304 357.426 284.676C356.742 285.036 355.968 285.216 355.104 285.216C353.688 285.216 352.536 284.772 351.648 283.884C350.76 282.996 350.316 281.868 350.316 280.5C350.316 279.144 350.754 278.022 351.63 277.134C352.506 276.234 353.634 275.784 355.014 275.784ZM355.014 276.936C354.078 276.936 353.292 277.212 352.656 277.764C352.032 278.316 351.66 279.042 351.54 279.942H358.254C358.122 278.982 357.756 278.244 357.156 277.728C356.532 277.2 355.818 276.936 355.014 276.936ZM366.191 275.784C367.475 275.784 368.567 276.24 369.467 277.152C370.379 278.064 370.835 279.18 370.835 280.5C370.835 281.82 370.379 282.936 369.467 283.848C368.567 284.76 367.475 285.216 366.191 285.216C364.595 285.216 363.383 284.556 362.555 283.236V288.6H361.367V276H362.555V277.764C363.383 276.444 364.595 275.784 366.191 275.784ZM363.581 283.038C364.265 283.722 365.105 284.064 366.101 284.064C367.097 284.064 367.937 283.722 368.621 283.038C369.305 282.33 369.647 281.484 369.647 280.5C369.647 279.504 369.305 278.664 368.621 277.98C367.937 277.284 367.097 276.936 366.101 276.936C365.105 276.936 364.265 277.284 363.581 277.98C362.897 278.664 362.555 279.504 362.555 280.5C362.555 281.484 362.897 282.33 363.581 283.038ZM376.969 275.784C378.313 275.784 379.387 276.258 380.191 277.206C381.019 278.142 381.433 279.252 381.433 280.536C381.433 280.596 381.421 280.782 381.397 281.094H373.495C373.615 281.994 373.999 282.714 374.647 283.254C375.295 283.794 376.105 284.064 377.077 284.064C378.445 284.064 379.411 283.554 379.975 282.534L381.019 283.146C380.623 283.794 380.077 284.304 379.381 284.676C378.697 285.036 377.923 285.216 377.059 285.216C375.643 285.216 374.491 284.772 373.603 283.884C372.715 282.996 372.271 281.868 372.271 280.5C372.271 279.144 372.709 278.022 373.585 277.134C374.461 276.234 375.589 275.784 376.969 275.784ZM376.969 276.936C376.033 276.936 375.247 277.212 374.611 277.764C373.987 278.316 373.615 279.042 373.495 279.942H380.209C380.077 278.982 379.711 278.244 379.111 277.728C378.487 277.2 377.773 276.936 376.969 276.936ZM389.695 279.924V276H390.883V285H389.695V281.076H384.511V285H383.323V276H384.511V279.924H389.695ZM399.767 279.924V276H400.955V285H399.767V281.076H394.583V285H393.395V276H394.583V279.924H399.767ZM411.009 283.866C410.085 284.766 408.969 285.216 407.661 285.216C406.329 285.216 405.207 284.766 404.295 283.866C403.383 282.954 402.927 281.832 402.927 280.5C402.927 279.168 403.383 278.052 404.295 277.152C405.207 276.24 406.329 275.784 407.661 275.784C408.981 275.784 410.097 276.24 411.009 277.152C411.933 278.052 412.395 279.168 412.395 280.5C412.395 281.82 411.933 282.942 411.009 283.866ZM405.141 283.038C405.825 283.722 406.665 284.064 407.661 284.064C408.657 284.064 409.497 283.722 410.181 283.038C410.865 282.33 411.207 281.484 411.207 280.5C411.207 279.504 410.865 278.664 410.181 277.98C409.497 277.284 408.657 276.936 407.661 276.936C406.665 276.936 405.825 277.284 405.141 277.98C404.457 278.664 404.115 279.504 404.115 280.5C404.115 281.484 404.457 282.33 405.141 283.038ZM423.527 280.374C424.571 280.77 425.093 281.49 425.093 282.534C425.093 283.29 424.799 283.926 424.211 284.442C423.647 284.958 422.819 285.216 421.727 285.216C419.903 285.216 418.715 284.496 418.163 283.056L419.171 282.462C419.555 283.53 420.407 284.064 421.727 284.064C422.411 284.064 422.945 283.92 423.329 283.632C423.713 283.332 423.905 282.942 423.905 282.462C423.905 282.03 423.749 281.688 423.437 281.436C423.125 281.172 422.705 281.04 422.177 281.04H420.863V279.888H421.817C422.333 279.888 422.735 279.762 423.023 279.51C423.323 279.246 423.473 278.886 423.473 278.43C423.473 277.998 423.293 277.644 422.933 277.368C422.585 277.08 422.123 276.936 421.547 276.936C420.431 276.936 419.681 277.386 419.297 278.286L418.307 277.71C418.907 276.426 419.987 275.784 421.547 275.784C422.507 275.784 423.263 276.036 423.815 276.54C424.379 277.032 424.661 277.638 424.661 278.358C424.661 279.282 424.283 279.954 423.527 280.374ZM433.271 279.924V276H434.459V285H433.271V281.076H428.087V285H426.899V276H428.087V279.924H433.271ZM444.711 277.764V276H445.899V285H444.711V283.236C443.883 284.556 442.671 285.216 441.075 285.216C439.791 285.216 438.693 284.76 437.781 283.848C436.881 282.936 436.431 281.82 436.431 280.5C436.431 279.18 436.881 278.064 437.781 277.152C438.693 276.24 439.791 275.784 441.075 275.784C442.671 275.784 443.883 276.444 444.711 277.764ZM438.645 283.038C439.329 283.722 440.169 284.064 441.165 284.064C442.161 284.064 443.001 283.722 443.685 283.038C444.369 282.33 444.711 281.484 444.711 280.5C444.711 279.504 444.369 278.664 443.685 277.98C443.001 277.284 442.161 276.936 441.165 276.936C440.169 276.936 439.329 277.284 438.645 277.98C437.961 278.664 437.619 279.504 437.619 280.5C437.619 281.484 437.961 282.33 438.645 283.038ZM452.572 275.784C453.916 275.784 454.99 276.258 455.794 277.206C456.622 278.142 457.036 279.252 457.036 280.536C457.036 280.596 457.024 280.782 457 281.094H449.098C449.218 281.994 449.602 282.714 450.25 283.254C450.898 283.794 451.708 284.064 452.68 284.064C454.048 284.064 455.014 283.554 455.578 282.534L456.622 283.146C456.226 283.794 455.68 284.304 454.984 284.676C454.3 285.036 453.526 285.216 452.662 285.216C451.246 285.216 450.094 284.772 449.206 283.884C448.318 282.996 447.874 281.868 447.874 280.5C447.874 279.144 448.312 278.022 449.188 277.134C450.064 276.234 451.192 275.784 452.572 275.784ZM452.572 276.936C451.636 276.936 450.85 277.212 450.214 277.764C449.59 278.316 449.218 279.042 449.098 279.942H455.812C455.68 278.982 455.314 278.244 454.714 277.728C454.09 277.2 453.376 276.936 452.572 276.936ZM457.494 276H465.054V277.152H461.868V285H460.68V277.152H457.494V276ZM470.012 273.552L473.342 272.4H474.422V285H473.162V273.786L470.336 274.632L470.012 273.552ZM480.539 276H488.099V277.152H484.913V285H483.725V277.152H480.539V276ZM496.936 277.764V276H498.124V285H496.936V283.236C496.108 284.556 494.896 285.216 493.3 285.216C492.016 285.216 490.918 284.76 490.006 283.848C489.106 282.936 488.656 281.82 488.656 280.5C488.656 279.18 489.106 278.064 490.006 277.152C490.918 276.24 492.016 275.784 493.3 275.784C494.896 275.784 496.108 276.444 496.936 277.764ZM490.87 283.038C491.554 283.722 492.394 284.064 493.39 284.064C494.386 284.064 495.226 283.722 495.91 283.038C496.594 282.33 496.936 281.484 496.936 280.5C496.936 279.504 496.594 278.664 495.91 277.98C495.226 277.284 494.386 276.936 493.39 276.936C492.394 276.936 491.554 277.284 490.87 277.98C490.186 278.664 489.844 279.504 489.844 280.5C489.844 281.484 490.186 282.33 490.87 283.038ZM507.011 279.924V276H508.199V285H507.011V281.076H501.827V285H500.639V276H501.827V279.924H507.011ZM514.869 275.784C516.213 275.784 517.287 276.258 518.091 277.206C518.919 278.142 519.333 279.252 519.333 280.536C519.333 280.596 519.321 280.782 519.297 281.094H511.395C511.515 281.994 511.899 282.714 512.547 283.254C513.195 283.794 514.005 284.064 514.977 284.064C516.345 284.064 517.311 283.554 517.875 282.534L518.919 283.146C518.523 283.794 517.977 284.304 517.281 284.676C516.597 285.036 515.823 285.216 514.959 285.216C513.543 285.216 512.391 284.772 511.503 283.884C510.615 282.996 510.171 281.868 510.171 280.5C510.171 279.144 510.609 278.022 511.485 277.134C512.361 276.234 513.489 275.784 514.869 275.784ZM514.869 276.936C513.933 276.936 513.147 277.212 512.511 277.764C511.887 278.316 511.515 279.042 511.395 279.942H518.109C517.977 278.982 517.611 278.244 517.011 277.728C516.387 277.2 515.673 276.936 514.869 276.936ZM528.603 276V283.848H530.043V287.412H528.855V285H521.223V276H522.411V283.848H527.415V276H528.603Z" fill="#2B2B2B"/>
<path d="M541 230V170H701" stroke="url(#paint3_linear_425_535)" stroke-width="2"/>
<path d="M588.024 143.28L585.404 146.68C586.377 146.96 587.15 147.453 587.724 148.16C588.31 148.867 588.604 149.707 588.604 150.68C588.604 152.12 588.117 153.247 587.144 154.06C586.197 154.873 585.017 155.28 583.604 155.28C582.497 155.28 581.517 155.027 580.664 154.52C579.81 154 579.19 153.267 578.804 152.32L581.164 150.96C581.497 152.04 582.31 152.58 583.604 152.58C584.31 152.58 584.857 152.413 585.244 152.08C585.644 151.733 585.844 151.267 585.844 150.68C585.844 150.107 585.644 149.647 585.244 149.3C584.857 148.953 584.31 148.78 583.604 148.78H583.004L581.944 147.18L584.704 143.58H579.224V141H588.024V143.28ZM603.282 145H605.822V155H603.322V149.16L600.782 153.16H600.462L597.902 149.12V155H595.422V145H597.962L600.622 149.2L603.282 145ZM617.896 151.06H610.356C610.689 152.313 611.629 152.94 613.176 152.94C614.163 152.94 614.909 152.607 615.416 151.94L617.496 153.14C616.509 154.567 615.056 155.28 613.136 155.28C611.483 155.28 610.156 154.78 609.156 153.78C608.156 152.78 607.656 151.52 607.656 150C607.656 148.507 608.149 147.253 609.136 146.24C610.109 145.227 611.376 144.72 612.936 144.72C614.416 144.72 615.623 145.227 616.556 146.24C617.516 147.253 617.996 148.507 617.996 150C617.996 150.28 617.963 150.633 617.896 151.06ZM610.316 149.06H615.416C615.269 148.407 614.969 147.907 614.516 147.56C614.076 147.213 613.549 147.04 612.936 147.04C612.243 147.04 611.669 147.22 611.216 147.58C610.763 147.927 610.463 148.42 610.316 149.06ZM624.479 155.28C622.972 155.28 621.712 154.773 620.699 153.76C619.699 152.747 619.199 151.493 619.199 150C619.199 148.507 619.699 147.253 620.699 146.24C621.712 145.227 622.972 144.72 624.479 144.72C625.452 144.72 626.339 144.953 627.139 145.42C627.939 145.887 628.546 146.513 628.959 147.3L626.739 148.6C626.539 148.187 626.232 147.86 625.819 147.62C625.419 147.38 624.966 147.26 624.459 147.26C623.686 147.26 623.046 147.52 622.539 148.04C622.032 148.547 621.779 149.2 621.779 150C621.779 150.773 622.032 151.427 622.539 151.96C623.046 152.467 623.686 152.72 624.459 152.72C624.979 152.72 625.439 152.607 625.839 152.38C626.252 152.14 626.559 151.813 626.759 151.4L628.999 152.68C628.559 153.48 627.932 154.113 627.119 154.58C626.319 155.047 625.439 155.28 624.479 155.28ZM633.567 145H638.247V155H635.727V151.88H634.827L632.527 155H629.547L632.047 151.58C631.407 151.313 630.894 150.893 630.507 150.32C630.134 149.747 629.947 149.12 629.947 148.44C629.947 147.52 630.28 146.713 630.947 146.02C631.6 145.34 632.474 145 633.567 145ZM635.727 147.3H633.767C633.394 147.3 633.08 147.413 632.827 147.64C632.587 147.867 632.467 148.16 632.467 148.52C632.467 148.88 632.587 149.167 632.827 149.38C633.08 149.593 633.394 149.7 633.767 149.7H635.727V147.3ZM649.398 145V152.58H651.078V157.68H648.558V155H640.598V145H643.178V152.58H646.818V145H649.398ZM659.917 146.18V145H662.497V155H659.917V153.82C659.143 154.793 658.057 155.28 656.657 155.28C655.323 155.28 654.177 154.773 653.217 153.76C652.27 152.733 651.797 151.48 651.797 150C651.797 148.533 652.27 147.287 653.217 146.26C654.177 145.233 655.323 144.72 656.657 144.72C658.057 144.72 659.143 145.207 659.917 146.18ZM655.157 152.04C655.677 152.56 656.337 152.82 657.137 152.82C657.937 152.82 658.597 152.56 659.117 152.04C659.65 151.507 659.917 150.827 659.917 150C659.917 149.173 659.65 148.5 659.117 147.98C658.597 147.447 657.937 147.18 657.137 147.18C656.337 147.18 655.677 147.447 655.157 147.98C654.637 148.5 654.377 149.173 654.377 150C654.377 150.827 654.637 151.507 655.157 152.04Z" fill="#2B2B2B"/>
<path d="M590.672 189H598.232V198H597.044V190.152H591.86V198H590.672V189ZM604.902 188.784C606.246 188.784 607.32 189.258 608.124 190.206C608.952 191.142 609.366 192.252 609.366 193.536C609.366 193.596 609.354 193.782 609.33 194.094H601.428C601.548 194.994 601.932 195.714 602.58 196.254C603.228 196.794 604.038 197.064 605.01 197.064C606.378 197.064 607.344 196.554 607.908 195.534L608.952 196.146C608.556 196.794 608.01 197.304 607.314 197.676C606.63 198.036 605.856 198.216 604.992 198.216C603.576 198.216 602.424 197.772 601.536 196.884C600.648 195.996 600.204 194.868 600.204 193.5C600.204 192.144 600.642 191.022 601.518 190.134C602.394 189.234 603.522 188.784 604.902 188.784ZM604.902 189.936C603.966 189.936 603.18 190.212 602.544 190.764C601.92 191.316 601.548 192.042 601.428 192.942H608.142C608.01 191.982 607.644 191.244 607.044 190.728C606.42 190.2 605.706 189.936 604.902 189.936ZM616.08 188.784C617.364 188.784 618.456 189.24 619.356 190.152C620.268 191.064 620.724 192.18 620.724 193.5C620.724 194.82 620.268 195.936 619.356 196.848C618.456 197.76 617.364 198.216 616.08 198.216C614.484 198.216 613.272 197.556 612.444 196.236V201.6H611.256V189H612.444V190.764C613.272 189.444 614.484 188.784 616.08 188.784ZM613.47 196.038C614.154 196.722 614.994 197.064 615.99 197.064C616.986 197.064 617.826 196.722 618.51 196.038C619.194 195.33 619.536 194.484 619.536 193.5C619.536 192.504 619.194 191.664 618.51 190.98C617.826 190.284 616.986 189.936 615.99 189.936C614.994 189.936 614.154 190.284 613.47 190.98C612.786 191.664 612.444 192.504 612.444 193.5C612.444 194.484 612.786 195.33 613.47 196.038ZM628.423 193.374C629.407 193.734 629.899 194.436 629.899 195.48C629.899 196.224 629.647 196.83 629.143 197.298C628.651 197.766 627.961 198 627.073 198H622.699V189H626.713C627.577 189 628.249 189.222 628.729 189.666C629.221 190.11 629.467 190.692 629.467 191.412C629.467 192.312 629.119 192.966 628.423 193.374ZM626.713 190.152H623.887V192.888H626.713C627.757 192.888 628.279 192.42 628.279 191.484C628.279 191.064 628.141 190.74 627.865 190.512C627.601 190.272 627.217 190.152 626.713 190.152ZM623.887 196.848H627.073C627.601 196.848 628.003 196.722 628.279 196.47C628.567 196.218 628.711 195.864 628.711 195.408C628.711 194.976 628.567 194.64 628.279 194.4C628.003 194.16 627.601 194.04 627.073 194.04H623.887V196.848ZM632.887 192.42H635.353C636.181 192.42 636.889 192.684 637.477 193.212C638.065 193.728 638.359 194.394 638.359 195.21C638.359 196.038 638.065 196.71 637.477 197.226C636.913 197.742 636.205 198 635.353 198H631.699V189H632.887V192.42ZM639.619 198V189H640.807V198H639.619ZM632.887 196.848H635.353C635.869 196.848 636.301 196.698 636.649 196.398C636.997 196.086 637.171 195.69 637.171 195.21C637.171 194.73 636.997 194.34 636.649 194.04C636.301 193.728 635.869 193.572 635.353 193.572H632.887V196.848ZM647.494 188.784C648.838 188.784 649.912 189.258 650.716 190.206C651.544 191.142 651.958 192.252 651.958 193.536C651.958 193.596 651.946 193.782 651.922 194.094H644.02C644.14 194.994 644.524 195.714 645.172 196.254C645.82 196.794 646.63 197.064 647.602 197.064C648.97 197.064 649.936 196.554 650.5 195.534L651.544 196.146C651.148 196.794 650.602 197.304 649.906 197.676C649.222 198.036 648.448 198.216 647.584 198.216C646.168 198.216 645.016 197.772 644.128 196.884C643.24 195.996 642.796 194.868 642.796 193.5C642.796 192.144 643.234 191.022 644.11 190.134C644.986 189.234 646.114 188.784 647.494 188.784ZM647.494 189.936C646.558 189.936 645.772 190.212 645.136 190.764C644.512 191.316 644.14 192.042 644.02 192.942H650.734C650.602 191.982 650.236 191.244 649.636 190.728C649.012 190.2 648.298 189.936 647.494 189.936ZM574.423 220.374C575.407 220.734 575.899 221.436 575.899 222.48C575.899 223.224 575.647 223.83 575.143 224.298C574.651 224.766 573.961 225 573.073 225H568.699V216H572.713C573.577 216 574.249 216.222 574.729 216.666C575.221 217.11 575.467 217.692 575.467 218.412C575.467 219.312 575.119 219.966 574.423 220.374ZM572.713 217.152H569.887V219.888H572.713C573.757 219.888 574.279 219.42 574.279 218.484C574.279 218.064 574.141 217.74 573.865 217.512C573.601 217.272 573.217 217.152 572.713 217.152ZM569.887 223.848H573.073C573.601 223.848 574.003 223.722 574.279 223.47C574.567 223.218 574.711 222.864 574.711 222.408C574.711 221.976 574.567 221.64 574.279 221.4C574.003 221.16 573.601 221.04 573.073 221.04H569.887V223.848ZM578.887 219.42H581.353C582.181 219.42 582.889 219.684 583.477 220.212C584.065 220.728 584.359 221.394 584.359 222.21C584.359 223.038 584.065 223.71 583.477 224.226C582.913 224.742 582.205 225 581.353 225H577.699V216H578.887V219.42ZM585.619 225V216H586.807V225H585.619ZM578.887 223.848H581.353C581.869 223.848 582.301 223.698 582.649 223.398C582.997 223.086 583.171 222.69 583.171 222.21C583.171 221.73 582.997 221.34 582.649 221.04C582.301 220.728 581.869 220.572 581.353 220.572H578.887V223.848ZM593.53 225.216C592.174 225.216 591.046 224.766 590.146 223.866C589.246 222.942 588.796 221.82 588.796 220.5C588.796 219.168 589.246 218.052 590.146 217.152C591.046 216.24 592.174 215.784 593.53 215.784C594.418 215.784 595.216 216 595.924 216.432C596.632 216.852 597.148 217.422 597.472 218.142L596.5 218.7C596.26 218.16 595.87 217.734 595.33 217.422C594.802 217.098 594.202 216.936 593.53 216.936C592.534 216.936 591.694 217.284 591.01 217.98C590.326 218.664 589.984 219.504 589.984 220.5C589.984 221.484 590.326 222.33 591.01 223.038C591.694 223.722 592.534 224.064 593.53 224.064C594.19 224.064 594.784 223.908 595.312 223.596C595.852 223.284 596.272 222.852 596.572 222.3L597.562 222.876C597.19 223.596 596.644 224.166 595.924 224.586C595.204 225.006 594.406 225.216 593.53 225.216ZM598.012 216H605.572V217.152H602.386V225H601.198V217.152H598.012V216ZM610.584 223.542L613.5 216H614.76L610.908 225.828C610.548 226.74 610.044 227.442 609.396 227.934C608.76 228.438 608.052 228.66 607.272 228.6V227.484C608.352 227.616 609.174 226.992 609.738 225.612L609.972 225.054L605.94 216H607.2L610.584 223.542ZM616.196 216H623.756V225H622.568V217.152H617.384V225H616.196V216ZM627.204 216H633.648V225H632.46V217.152H628.392V221.166C628.392 222.666 628.104 223.698 627.528 224.262C626.964 224.826 626.184 225.072 625.188 225V223.884C625.884 223.956 626.394 223.788 626.718 223.38C627.042 222.972 627.204 222.234 627.204 221.166V216ZM640.322 215.784C641.666 215.784 642.74 216.258 643.544 217.206C644.372 218.142 644.786 219.252 644.786 220.536C644.786 220.596 644.774 220.782 644.75 221.094H636.848C636.968 221.994 637.352 222.714 638 223.254C638.648 223.794 639.458 224.064 640.43 224.064C641.798 224.064 642.764 223.554 643.328 222.534L644.372 223.146C643.976 223.794 643.43 224.304 642.734 224.676C642.05 225.036 641.276 225.216 640.412 225.216C638.996 225.216 637.844 224.772 636.956 223.884C636.068 222.996 635.624 221.868 635.624 220.5C635.624 219.144 636.062 218.022 636.938 217.134C637.814 216.234 638.942 215.784 640.322 215.784ZM640.322 216.936C639.386 216.936 638.6 217.212 637.964 217.764C637.34 218.316 636.968 219.042 636.848 219.942H643.562C643.43 218.982 643.064 218.244 642.464 217.728C641.84 217.2 641.126 216.936 640.322 216.936ZM653.048 219.924V216H654.236V225H653.048V221.076H647.864V225H646.676V216H647.864V219.924H653.048ZM657.936 222.93L663.3 216H664.308V225H663.12V218.07L657.756 225H656.748V216H657.936V222.93ZM669.647 216H673.301V225H672.113V221.544H670.565L667.793 225H666.281L669.125 221.508C668.393 221.4 667.793 221.1 667.325 220.608C666.869 220.104 666.641 219.498 666.641 218.79C666.641 217.986 666.929 217.32 667.505 216.792C668.105 216.264 668.819 216 669.647 216ZM669.647 220.428H672.113V217.152H669.647C669.131 217.152 668.699 217.308 668.351 217.62C668.003 217.92 667.829 218.31 667.829 218.79C667.829 219.27 668.003 219.666 668.351 219.978C668.699 220.278 669.131 220.428 669.647 220.428Z" fill="#2B2B2B"/>
<path d="M701 170V110H921" stroke="url(#paint4_linear_425_535)" stroke-width="2"/>
<path d="M772.407 81L769.307 85.54C770.761 85.58 771.941 86.0533 772.847 86.96C773.754 87.8667 774.207 89.0133 774.207 90.4C774.207 91.8267 773.734 93 772.787 93.92C771.841 94.8267 770.621 95.28 769.127 95.28C767.634 95.28 766.414 94.8267 765.467 93.92C764.534 93.0267 764.067 91.8533 764.067 90.4C764.067 89.3467 764.341 88.4067 764.887 87.58L769.247 81H772.407ZM771.467 90.4C771.467 89.7333 771.247 89.1933 770.807 88.78C770.367 88.3533 769.807 88.14 769.127 88.14C768.447 88.14 767.887 88.3467 767.447 88.76C767.021 89.1733 766.807 89.72 766.807 90.4C766.807 91.08 767.021 91.6333 767.447 92.06C767.887 92.4733 768.447 92.68 769.127 92.68C769.807 92.68 770.367 92.4733 770.807 92.06C771.247 91.6333 771.467 91.08 771.467 90.4ZM788.702 85H791.242V95H788.742V89.16L786.202 93.16H785.882L783.322 89.12V95H780.842V85H783.382L786.042 89.2L788.702 85ZM803.316 91.06H795.776C796.109 92.3133 797.049 92.94 798.596 92.94C799.583 92.94 800.329 92.6067 800.836 91.94L802.916 93.14C801.929 94.5667 800.476 95.28 798.556 95.28C796.903 95.28 795.576 94.78 794.576 93.78C793.576 92.78 793.076 91.52 793.076 90C793.076 88.5067 793.569 87.2533 794.556 86.24C795.529 85.2267 796.796 84.72 798.356 84.72C799.836 84.72 801.043 85.2267 801.976 86.24C802.936 87.2533 803.416 88.5067 803.416 90C803.416 90.28 803.383 90.6333 803.316 91.06ZM795.736 89.06H800.836C800.689 88.4067 800.389 87.9067 799.936 87.56C799.496 87.2133 798.969 87.04 798.356 87.04C797.663 87.04 797.089 87.22 796.636 87.58C796.183 87.9267 795.883 88.42 795.736 89.06ZM809.899 95.28C808.392 95.28 807.132 94.7733 806.119 93.76C805.119 92.7467 804.619 91.4933 804.619 90C804.619 88.5067 805.119 87.2533 806.119 86.24C807.132 85.2267 808.392 84.72 809.899 84.72C810.872 84.72 811.759 84.9533 812.559 85.42C813.359 85.8867 813.966 86.5133 814.379 87.3L812.159 88.6C811.959 88.1867 811.652 87.86 811.239 87.62C810.839 87.38 810.386 87.26 809.879 87.26C809.106 87.26 808.466 87.52 807.959 88.04C807.452 88.5467 807.199 89.2 807.199 90C807.199 90.7733 807.452 91.4267 807.959 91.96C808.466 92.4667 809.106 92.72 809.879 92.72C810.399 92.72 810.859 92.6067 811.259 92.38C811.672 92.14 811.979 91.8133 812.179 91.4L814.419 92.68C813.979 93.48 813.352 94.1133 812.539 94.58C811.739 95.0467 810.859 95.28 809.899 95.28ZM818.987 85H823.667V95H821.147V91.88H820.247L817.947 95H814.967L817.467 91.58C816.827 91.3133 816.313 90.8933 815.927 90.32C815.553 89.7467 815.367 89.12 815.367 88.44C815.367 87.52 815.7 86.7133 816.367 86.02C817.02 85.34 817.893 85 818.987 85ZM821.147 87.3H819.187C818.813 87.3 818.5 87.4133 818.247 87.64C818.007 87.8667 817.887 88.16 817.887 88.52C817.887 88.88 818.007 89.1667 818.247 89.38C818.5 89.5933 818.813 89.7 819.187 89.7H821.147V87.3ZM834.818 85V92.58H836.498V97.68H833.978V95H826.018V85H828.598V92.58H832.238V85H834.818ZM847.457 91.06H839.917C840.25 92.3133 841.19 92.94 842.737 92.94C843.723 92.94 844.47 92.6067 844.977 91.94L847.057 93.14C846.07 94.5667 844.617 95.28 842.697 95.28C841.043 95.28 839.717 94.78 838.717 93.78C837.717 92.78 837.217 91.52 837.217 90C837.217 88.5067 837.71 87.2533 838.697 86.24C839.67 85.2267 840.937 84.72 842.497 84.72C843.977 84.72 845.183 85.2267 846.117 86.24C847.077 87.2533 847.557 88.5067 847.557 90C847.557 90.28 847.523 90.6333 847.457 91.06ZM839.877 89.06H844.977C844.83 88.4067 844.53 87.9067 844.077 87.56C843.637 87.2133 843.11 87.04 842.497 87.04C841.803 87.04 841.23 87.22 840.777 87.58C840.323 87.9267 840.023 88.42 839.877 89.06ZM856.558 89.88C857.491 90.3333 857.958 91.0933 857.958 92.16C857.958 93.0133 857.664 93.7 857.078 94.22C856.491 94.74 855.671 95 854.618 95H849.358V85H854.218C855.258 85 856.071 85.26 856.658 85.78C857.244 86.2867 857.538 86.9667 857.538 87.82C857.538 88.7 857.211 89.3867 856.558 89.88ZM853.978 87.12H851.778V88.92H853.978C854.711 88.92 855.078 88.62 855.078 88.02C855.078 87.42 854.711 87.12 853.978 87.12ZM851.778 92.82H854.318C855.064 92.82 855.438 92.5 855.438 91.86C855.438 91.58 855.338 91.36 855.138 91.2C854.938 91.04 854.664 90.96 854.318 90.96H851.778V92.82Z" fill="#2B2B2B"/>
<path d="M728.874 136.542L731.79 129H733.05L729.198 138.828C728.838 139.74 728.334 140.442 727.686 140.934C727.05 141.438 726.342 141.66 725.562 141.6V140.484C726.642 140.616 727.464 139.992 728.028 138.612L728.262 138.054L724.23 129H725.49L728.874 136.542ZM740.21 133.374C741.194 133.734 741.686 134.436 741.686 135.48C741.686 136.224 741.434 136.83 740.93 137.298C740.438 137.766 739.748 138 738.86 138H734.486V129H738.5C739.364 129 740.036 129.222 740.516 129.666C741.008 130.11 741.254 130.692 741.254 131.412C741.254 132.312 740.906 132.966 740.21 133.374ZM738.5 130.152H735.674V132.888H738.5C739.544 132.888 740.066 132.42 740.066 131.484C740.066 131.064 739.928 130.74 739.652 130.512C739.388 130.272 739.004 130.152 738.5 130.152ZM735.674 136.848H738.86C739.388 136.848 739.79 136.722 740.066 136.47C740.354 136.218 740.498 135.864 740.498 135.408C740.498 134.976 740.354 134.64 740.066 134.4C739.79 134.16 739.388 134.04 738.86 134.04H735.674V136.848ZM747.644 128.784C748.988 128.784 750.062 129.258 750.866 130.206C751.694 131.142 752.108 132.252 752.108 133.536C752.108 133.596 752.096 133.782 752.072 134.094H744.17C744.29 134.994 744.674 135.714 745.322 136.254C745.97 136.794 746.78 137.064 747.752 137.064C749.12 137.064 750.086 136.554 750.65 135.534L751.694 136.146C751.298 136.794 750.752 137.304 750.056 137.676C749.372 138.036 748.598 138.216 747.734 138.216C746.318 138.216 745.166 137.772 744.278 136.884C743.39 135.996 742.946 134.868 742.946 133.5C742.946 132.144 743.384 131.022 744.26 130.134C745.136 129.234 746.264 128.784 747.644 128.784ZM747.644 129.936C746.708 129.936 745.922 130.212 745.286 130.764C744.662 131.316 744.29 132.042 744.17 132.942H750.884C750.752 131.982 750.386 131.244 749.786 130.728C749.162 130.2 748.448 129.936 747.644 129.936ZM758.821 128.784C760.105 128.784 761.197 129.24 762.097 130.152C763.009 131.064 763.465 132.18 763.465 133.5C763.465 134.82 763.009 135.936 762.097 136.848C761.197 137.76 760.105 138.216 758.821 138.216C757.225 138.216 756.013 137.556 755.185 136.236V141.6H753.997V129H755.185V130.764C756.013 129.444 757.225 128.784 758.821 128.784ZM756.211 136.038C756.895 136.722 757.735 137.064 758.731 137.064C759.727 137.064 760.567 136.722 761.251 136.038C761.935 135.33 762.277 134.484 762.277 133.5C762.277 132.504 761.935 131.664 761.251 130.98C760.567 130.284 759.727 129.936 758.731 129.936C757.735 129.936 756.895 130.284 756.211 130.98C755.527 131.664 755.185 132.504 755.185 133.5C755.185 134.484 755.527 135.33 756.211 136.038ZM769.599 128.784C770.943 128.784 772.017 129.258 772.821 130.206C773.649 131.142 774.063 132.252 774.063 133.536C774.063 133.596 774.051 133.782 774.027 134.094H766.125C766.245 134.994 766.629 135.714 767.277 136.254C767.925 136.794 768.735 137.064 769.707 137.064C771.075 137.064 772.041 136.554 772.605 135.534L773.649 136.146C773.253 136.794 772.707 137.304 772.011 137.676C771.327 138.036 770.553 138.216 769.689 138.216C768.273 138.216 767.121 137.772 766.233 136.884C765.345 135.996 764.901 134.868 764.901 133.5C764.901 132.144 765.339 131.022 766.215 130.134C767.091 129.234 768.219 128.784 769.599 128.784ZM769.599 129.936C768.663 129.936 767.877 130.212 767.241 130.764C766.617 131.316 766.245 132.042 766.125 132.942H772.839C772.707 131.982 772.341 131.244 771.741 130.728C771.117 130.2 770.403 129.936 769.599 129.936ZM782.324 132.924V129H783.512V138H782.324V134.076H777.14V138H775.952V129H777.14V132.924H782.324ZM792.397 132.924V129H793.585V138H792.397V134.076H787.213V138H786.025V129H787.213V132.924H792.397ZM803.639 136.866C802.715 137.766 801.599 138.216 800.291 138.216C798.959 138.216 797.837 137.766 796.925 136.866C796.013 135.954 795.557 134.832 795.557 133.5C795.557 132.168 796.013 131.052 796.925 130.152C797.837 129.24 798.959 128.784 800.291 128.784C801.611 128.784 802.727 129.24 803.639 130.152C804.563 131.052 805.025 132.168 805.025 133.5C805.025 134.82 804.563 135.942 803.639 136.866ZM797.771 136.038C798.455 136.722 799.295 137.064 800.291 137.064C801.287 137.064 802.127 136.722 802.811 136.038C803.495 135.33 803.837 134.484 803.837 133.5C803.837 132.504 803.495 131.664 802.811 130.98C802.127 130.284 801.287 129.936 800.291 129.936C799.295 129.936 798.455 130.284 797.771 130.98C797.087 131.664 796.745 132.504 796.745 133.5C796.745 134.484 797.087 135.33 797.771 136.038ZM812.701 135.93L818.065 129H819.073V138H817.885V131.07L812.521 138H811.513V129H812.701V135.93ZM825.779 138.216C824.423 138.216 823.295 137.766 822.395 136.866C821.495 135.942 821.045 134.82 821.045 133.5C821.045 132.168 821.495 131.052 822.395 130.152C823.295 129.24 824.423 128.784 825.779 128.784C826.667 128.784 827.465 129 828.173 129.432C828.881 129.852 829.397 130.422 829.721 131.142L828.749 131.7C828.509 131.16 828.119 130.734 827.579 130.422C827.051 130.098 826.451 129.936 825.779 129.936C824.783 129.936 823.943 130.284 823.259 130.98C822.575 131.664 822.233 132.504 822.233 133.5C822.233 134.484 822.575 135.33 823.259 136.038C823.943 136.722 824.783 137.064 825.779 137.064C826.439 137.064 827.033 136.908 827.561 136.596C828.101 136.284 828.521 135.852 828.821 135.3L829.811 135.876C829.439 136.596 828.893 137.166 828.173 137.586C827.453 138.006 826.655 138.216 825.779 138.216ZM831.517 129H839.077V138H837.889V130.152H832.705V138H831.517V129ZM849.131 136.866C848.207 137.766 847.091 138.216 845.783 138.216C844.451 138.216 843.329 137.766 842.417 136.866C841.505 135.954 841.049 134.832 841.049 133.5C841.049 132.168 841.505 131.052 842.417 130.152C843.329 129.24 844.451 128.784 845.783 128.784C847.103 128.784 848.219 129.24 849.131 130.152C850.055 131.052 850.517 132.168 850.517 133.5C850.517 134.82 850.055 135.942 849.131 136.866ZM843.263 136.038C843.947 136.722 844.787 137.064 845.783 137.064C846.779 137.064 847.619 136.722 848.303 136.038C848.987 135.33 849.329 134.484 849.329 133.5C849.329 132.504 848.987 131.664 848.303 130.98C847.619 130.284 846.779 129.936 845.783 129.936C844.787 129.936 843.947 130.284 843.263 130.98C842.579 131.664 842.237 132.504 842.237 133.5C842.237 134.484 842.579 135.33 843.263 136.038ZM853.09 129H859.534V138H858.346V130.152H854.278V134.166C854.278 135.666 853.99 136.698 853.414 137.262C852.85 137.826 852.07 138.072 851.074 138V136.884C851.77 136.956 852.28 136.788 852.604 136.38C852.928 135.972 853.09 135.234 853.09 134.166V129ZM868.422 132.924V129H869.61V138H868.422V134.076H863.238V138H862.05V129H863.238V132.924H868.422ZM874.948 129H878.602V138H877.414V134.544H875.866L873.094 138H871.582L874.426 134.508C873.694 134.4 873.094 134.1 872.626 133.608C872.17 133.104 871.942 132.498 871.942 131.79C871.942 130.986 872.23 130.32 872.806 129.792C873.406 129.264 874.12 129 874.948 129ZM874.948 133.428H877.414V130.152H874.948C874.432 130.152 874 130.308 873.652 130.62C873.304 130.92 873.13 131.31 873.13 131.79C873.13 132.27 873.304 132.666 873.652 132.978C874 133.278 874.432 133.428 874.948 133.428ZM885.28 128.784C886.624 128.784 887.698 129.258 888.502 130.206C889.33 131.142 889.744 132.252 889.744 133.536C889.744 133.596 889.732 133.782 889.708 134.094H881.806C881.926 134.994 882.31 135.714 882.958 136.254C883.606 136.794 884.416 137.064 885.388 137.064C886.756 137.064 887.722 136.554 888.286 135.534L889.33 136.146C888.934 136.794 888.388 137.304 887.692 137.676C887.008 138.036 886.234 138.216 885.37 138.216C883.954 138.216 882.802 137.772 881.914 136.884C881.026 135.996 880.582 134.868 880.582 133.5C880.582 132.144 881.02 131.022 881.896 130.134C882.772 129.234 883.9 128.784 885.28 128.784ZM885.28 129.936C884.344 129.936 883.558 130.212 882.922 130.764C882.298 131.316 881.926 132.042 881.806 132.942H888.52C888.388 131.982 888.022 131.244 887.422 130.728C886.798 130.2 886.084 129.936 885.28 129.936ZM890.202 129H897.762V130.152H894.576V138H893.388V130.152H890.202V129ZM743.776 159.924V156H744.964V165H743.776V161.076H738.592V165H737.404V156H738.592V159.924H743.776ZM751.634 155.784C752.978 155.784 754.052 156.258 754.856 157.206C755.684 158.142 756.098 159.252 756.098 160.536C756.098 160.596 756.086 160.782 756.062 161.094H748.16C748.28 161.994 748.664 162.714 749.312 163.254C749.96 163.794 750.77 164.064 751.742 164.064C753.11 164.064 754.076 163.554 754.64 162.534L755.684 163.146C755.288 163.794 754.742 164.304 754.046 164.676C753.362 165.036 752.588 165.216 751.724 165.216C750.308 165.216 749.156 164.772 748.268 163.884C747.38 162.996 746.936 161.868 746.936 160.5C746.936 159.144 747.374 158.022 748.25 157.134C749.126 156.234 750.254 155.784 751.634 155.784ZM751.634 156.936C750.698 156.936 749.912 157.212 749.276 157.764C748.652 158.316 748.28 159.042 748.16 159.942H754.874C754.742 158.982 754.376 158.244 753.776 157.728C753.152 157.2 752.438 156.936 751.634 156.936ZM762.182 165.216C760.826 165.216 759.698 164.766 758.798 163.866C757.898 162.942 757.448 161.82 757.448 160.5C757.448 159.168 757.898 158.052 758.798 157.152C759.698 156.24 760.826 155.784 762.182 155.784C763.07 155.784 763.868 156 764.576 156.432C765.284 156.852 765.8 157.422 766.124 158.142L765.152 158.7C764.912 158.16 764.522 157.734 763.982 157.422C763.454 157.098 762.854 156.936 762.182 156.936C761.186 156.936 760.346 157.284 759.662 157.98C758.978 158.664 758.636 159.504 758.636 160.5C758.636 161.484 758.978 162.33 759.662 163.038C760.346 163.722 761.186 164.064 762.182 164.064C762.842 164.064 763.436 163.908 763.964 163.596C764.504 163.284 764.924 162.852 765.224 162.3L766.214 162.876C765.842 163.596 765.296 164.166 764.576 164.586C763.856 165.006 763.058 165.216 762.182 165.216ZM770.367 160.32L775.191 165H773.607L769.107 160.662V165H767.919V156H769.107V159.978L773.391 156H775.011L770.367 160.32ZM783.459 163.866C782.535 164.766 781.419 165.216 780.111 165.216C778.779 165.216 777.657 164.766 776.745 163.866C775.833 162.954 775.377 161.832 775.377 160.5C775.377 159.168 775.833 158.052 776.745 157.152C777.657 156.24 778.779 155.784 780.111 155.784C781.431 155.784 782.547 156.24 783.459 157.152C784.383 158.052 784.845 159.168 784.845 160.5C784.845 161.82 784.383 162.942 783.459 163.866ZM777.591 163.038C778.275 163.722 779.115 164.064 780.111 164.064C781.107 164.064 781.947 163.722 782.631 163.038C783.315 162.33 783.657 161.484 783.657 160.5C783.657 159.504 783.315 158.664 782.631 157.98C781.947 157.284 781.107 156.936 780.111 156.936C779.115 156.936 778.275 157.284 777.591 157.98C776.907 158.664 776.565 159.504 776.565 160.5C776.565 161.484 776.907 162.33 777.591 163.038ZM787.418 156H793.862V165H792.674V157.152H788.606V161.166C788.606 162.666 788.318 163.698 787.742 164.262C787.178 164.826 786.398 165.072 785.402 165V163.884C786.098 163.956 786.608 163.788 786.932 163.38C787.256 162.972 787.418 162.234 787.418 161.166V156ZM797.566 159.42H800.032C800.86 159.42 801.568 159.684 802.156 160.212C802.744 160.728 803.038 161.394 803.038 162.21C803.038 163.038 802.744 163.71 802.156 164.226C801.592 164.742 800.884 165 800.032 165H796.378V156H797.566V159.42ZM797.566 163.848H800.032C800.548 163.848 800.98 163.698 801.328 163.398C801.676 163.086 801.85 162.69 801.85 162.21C801.85 161.73 801.676 161.34 801.328 161.04C800.98 160.728 800.548 160.572 800.032 160.572H797.566V163.848ZM807.281 160.32L812.105 165H810.521L806.021 160.662V165H804.833V156H806.021V159.978L810.305 156H811.925L807.281 160.32ZM820.373 163.866C819.449 164.766 818.333 165.216 817.025 165.216C815.693 165.216 814.571 164.766 813.659 163.866C812.747 162.954 812.291 161.832 812.291 160.5C812.291 159.168 812.747 158.052 813.659 157.152C814.571 156.24 815.693 155.784 817.025 155.784C818.345 155.784 819.461 156.24 820.373 157.152C821.297 158.052 821.759 159.168 821.759 160.5C821.759 161.82 821.297 162.942 820.373 163.866ZM814.505 163.038C815.189 163.722 816.029 164.064 817.025 164.064C818.021 164.064 818.861 163.722 819.545 163.038C820.229 162.33 820.571 161.484 820.571 160.5C820.571 159.504 820.229 158.664 819.545 157.98C818.861 157.284 818.021 156.936 817.025 156.936C816.029 156.936 815.189 157.284 814.505 157.98C813.821 158.664 813.479 159.504 813.479 160.5C813.479 161.484 813.821 162.33 814.505 163.038ZM827.167 156H834.727V157.152H831.541V165H830.353V157.152H827.167V156ZM843.563 157.764V156H844.751V165H843.563V163.236C842.735 164.556 841.523 165.216 839.927 165.216C838.643 165.216 837.545 164.76 836.633 163.848C835.733 162.936 835.283 161.82 835.283 160.5C835.283 159.18 835.733 158.064 836.633 157.152C837.545 156.24 838.643 155.784 839.927 155.784C841.523 155.784 842.735 156.444 843.563 157.764ZM837.497 163.038C838.181 163.722 839.021 164.064 840.017 164.064C841.013 164.064 841.853 163.722 842.537 163.038C843.221 162.33 843.563 161.484 843.563 160.5C843.563 159.504 843.221 158.664 842.537 157.98C841.853 157.284 841.013 156.936 840.017 156.936C839.021 156.936 838.181 157.284 837.497 157.98C836.813 158.664 836.471 159.504 836.471 160.5C836.471 161.484 836.813 162.33 837.497 163.038ZM853.639 159.924V156H854.827V165H853.639V161.076H848.455V165H847.267V156H848.455V159.924H853.639ZM864.719 156V163.848H866.159V167.412H864.971V165H857.339V156H858.527V163.848H863.531V156H864.719ZM871.763 155.784C873.107 155.784 874.181 156.258 874.985 157.206C875.813 158.142 876.227 159.252 876.227 160.536C876.227 160.596 876.215 160.782 876.191 161.094H868.289C868.409 161.994 868.793 162.714 869.441 163.254C870.089 163.794 870.899 164.064 871.871 164.064C873.239 164.064 874.205 163.554 874.769 162.534L875.813 163.146C875.417 163.794 874.871 164.304 874.175 164.676C873.491 165.036 872.717 165.216 871.853 165.216C870.437 165.216 869.285 164.772 868.397 163.884C867.509 162.996 867.065 161.868 867.065 160.5C867.065 159.144 867.503 158.022 868.379 157.134C869.255 156.234 870.383 155.784 871.763 155.784ZM871.763 156.936C870.827 156.936 870.041 157.212 869.405 157.764C868.781 158.316 868.409 159.042 868.289 159.942H875.003C874.871 158.982 874.505 158.244 873.905 157.728C873.281 157.2 872.567 156.936 871.763 156.936ZM883.84 160.374C884.824 160.734 885.316 161.436 885.316 162.48C885.316 163.224 885.064 163.83 884.56 164.298C884.068 164.766 883.378 165 882.49 165H878.116V156H882.13C882.994 156 883.666 156.222 884.146 156.666C884.638 157.11 884.884 157.692 884.884 158.412C884.884 159.312 884.536 159.966 883.84 160.374ZM882.13 157.152H879.304V159.888H882.13C883.174 159.888 883.696 159.42 883.696 158.484C883.696 158.064 883.558 157.74 883.282 157.512C883.018 157.272 882.634 157.152 882.13 157.152ZM879.304 163.848H882.49C883.018 163.848 883.42 163.722 883.696 163.47C883.984 163.218 884.128 162.864 884.128 162.408C884.128 161.976 883.984 161.64 883.696 161.4C883.42 161.16 883.018 161.04 882.49 161.04H879.304V163.848Z" fill="#2B2B2B"/>
<path d="M921 110V50H1081" stroke="url(#paint5_linear_425_535)" stroke-width="2"/>
<path d="M979.218 22.3L982.898 21H985.298V35H982.538V23.92L979.898 24.66L979.218 22.3ZM992.912 25H999.752V27.48H995.492V35H992.912V25ZM1009.26 33.76C1008.25 34.7733 1007 35.28 1005.5 35.28C1004.01 35.28 1002.76 34.7733 1001.74 33.76C1000.73 32.7467 1000.22 31.4933 1000.22 30C1000.22 28.52 1000.73 27.2733 1001.74 26.26C1002.77 25.2333 1004.02 24.72 1005.5 24.72C1006.98 24.72 1008.24 25.2333 1009.26 26.26C1010.29 27.2867 1010.8 28.5333 1010.8 30C1010.8 31.48 1010.29 32.7333 1009.26 33.76ZM1003.56 31.98C1004.08 32.5 1004.73 32.76 1005.5 32.76C1006.28 32.76 1006.92 32.5 1007.44 31.98C1007.96 31.46 1008.22 30.8 1008.22 30C1008.22 29.2 1007.96 28.54 1007.44 28.02C1006.92 27.5 1006.28 27.24 1005.5 27.24C1004.73 27.24 1004.08 27.5 1003.56 28.02C1003.06 28.5533 1002.8 29.2133 1002.8 30C1002.8 30.7867 1003.06 31.4467 1003.56 31.98ZM1021.23 25V32.58H1022.55V37.68H1020.03V35H1013.83V37.68H1011.31V32.58H1012.53C1013.1 31.7267 1013.39 30.5467 1013.39 29.04V25H1021.23ZM1015.29 32.58H1018.71V27.32H1015.91V29.04C1015.91 30.48 1015.7 31.66 1015.29 32.58Z" fill="#2B2B2B"/>
<path d="M970.672 69H978.232V78H977.044V70.152H971.86V78H970.672V69ZM984.902 68.784C986.246 68.784 987.32 69.258 988.124 70.206C988.952 71.142 989.366 72.252 989.366 73.536C989.366 73.596 989.354 73.782 989.33 74.094H981.428C981.548 74.994 981.932 75.714 982.58 76.254C983.228 76.794 984.038 77.064 985.01 77.064C986.378 77.064 987.344 76.554 987.908 75.534L988.952 76.146C988.556 76.794 988.01 77.304 987.314 77.676C986.63 78.036 985.856 78.216 984.992 78.216C983.576 78.216 982.424 77.772 981.536 76.884C980.648 75.996 980.204 74.868 980.204 73.5C980.204 72.144 980.642 71.022 981.518 70.134C982.394 69.234 983.522 68.784 984.902 68.784ZM984.902 69.936C983.966 69.936 983.18 70.212 982.544 70.764C981.92 71.316 981.548 72.042 981.428 72.942H988.142C988.01 71.982 987.644 71.244 987.044 70.728C986.42 70.2 985.706 69.936 984.902 69.936ZM996.08 68.784C997.364 68.784 998.456 69.24 999.356 70.152C1000.27 71.064 1000.72 72.18 1000.72 73.5C1000.72 74.82 1000.27 75.936 999.356 76.848C998.456 77.76 997.364 78.216 996.08 78.216C994.484 78.216 993.272 77.556 992.444 76.236V81.6H991.256V69H992.444V70.764C993.272 69.444 994.484 68.784 996.08 68.784ZM993.47 76.038C994.154 76.722 994.994 77.064 995.99 77.064C996.986 77.064 997.826 76.722 998.51 76.038C999.194 75.33 999.536 74.484 999.536 73.5C999.536 72.504 999.194 71.664 998.51 70.98C997.826 70.284 996.986 69.936 995.99 69.936C994.994 69.936 994.154 70.284 993.47 70.98C992.786 71.664 992.444 72.504 992.444 73.5C992.444 74.484 992.786 75.33 993.47 76.038ZM1008.42 73.374C1009.41 73.734 1009.9 74.436 1009.9 75.48C1009.9 76.224 1009.65 76.83 1009.14 77.298C1008.65 77.766 1007.96 78 1007.07 78H1002.7V69H1006.71C1007.58 69 1008.25 69.222 1008.73 69.666C1009.22 70.11 1009.47 70.692 1009.47 71.412C1009.47 72.312 1009.12 72.966 1008.42 73.374ZM1006.71 70.152H1003.89V72.888H1006.71C1007.76 72.888 1008.28 72.42 1008.28 71.484C1008.28 71.064 1008.14 70.74 1007.87 70.512C1007.6 70.272 1007.22 70.152 1006.71 70.152ZM1003.89 76.848H1007.07C1007.6 76.848 1008 76.722 1008.28 76.47C1008.57 76.218 1008.71 75.864 1008.71 75.408C1008.71 74.976 1008.57 74.64 1008.28 74.4C1008 74.16 1007.6 74.04 1007.07 74.04H1003.89V76.848ZM1012.89 72.42H1015.35C1016.18 72.42 1016.89 72.684 1017.48 73.212C1018.07 73.728 1018.36 74.394 1018.36 75.21C1018.36 76.038 1018.07 76.71 1017.48 77.226C1016.91 77.742 1016.21 78 1015.35 78H1011.7V69H1012.89V72.42ZM1019.62 78V69H1020.81V78H1019.62ZM1012.89 76.848H1015.35C1015.87 76.848 1016.3 76.698 1016.65 76.398C1017 76.086 1017.17 75.69 1017.17 75.21C1017.17 74.73 1017 74.34 1016.65 74.04C1016.3 73.728 1015.87 73.572 1015.35 73.572H1012.89V76.848ZM1027.49 68.784C1028.84 68.784 1029.91 69.258 1030.72 70.206C1031.54 71.142 1031.96 72.252 1031.96 73.536C1031.96 73.596 1031.95 73.782 1031.92 74.094H1024.02C1024.14 74.994 1024.52 75.714 1025.17 76.254C1025.82 76.794 1026.63 77.064 1027.6 77.064C1028.97 77.064 1029.94 76.554 1030.5 75.534L1031.54 76.146C1031.15 76.794 1030.6 77.304 1029.91 77.676C1029.22 78.036 1028.45 78.216 1027.58 78.216C1026.17 78.216 1025.02 77.772 1024.13 76.884C1023.24 75.996 1022.8 74.868 1022.8 73.5C1022.8 72.144 1023.23 71.022 1024.11 70.134C1024.99 69.234 1026.11 68.784 1027.49 68.784ZM1027.49 69.936C1026.56 69.936 1025.77 70.212 1025.14 70.764C1024.51 71.316 1024.14 72.042 1024.02 72.942H1030.73C1030.6 71.982 1030.24 71.244 1029.64 70.728C1029.01 70.2 1028.3 69.936 1027.49 69.936ZM945.308 105.216C943.952 105.216 942.824 104.766 941.924 103.866C941.024 102.942 940.574 101.82 940.574 100.5C940.574 99.168 941.024 98.052 941.924 97.152C942.824 96.24 943.952 95.784 945.308 95.784C946.196 95.784 946.994 96 947.702 96.432C948.41 96.852 948.926 97.422 949.25 98.142L948.278 98.7C948.038 98.16 947.648 97.734 947.108 97.422C946.58 97.098 945.98 96.936 945.308 96.936C944.312 96.936 943.472 97.284 942.788 97.98C942.104 98.664 941.762 99.504 941.762 100.5C941.762 101.484 942.104 102.33 942.788 103.038C943.472 103.722 944.312 104.064 945.308 104.064C945.968 104.064 946.562 103.908 947.09 103.596C947.63 103.284 948.05 102.852 948.35 102.3L949.34 102.876C948.968 103.596 948.422 104.166 947.702 104.586C946.982 105.006 946.184 105.216 945.308 105.216ZM958.5 103.866C957.576 104.766 956.46 105.216 955.152 105.216C953.82 105.216 952.698 104.766 951.786 103.866C950.874 102.954 950.418 101.832 950.418 100.5C950.418 99.168 950.874 98.052 951.786 97.152C952.698 96.24 953.82 95.784 955.152 95.784C956.472 95.784 957.588 96.24 958.5 97.152C959.424 98.052 959.886 99.168 959.886 100.5C959.886 101.82 959.424 102.942 958.5 103.866ZM952.632 103.038C953.316 103.722 954.156 104.064 955.152 104.064C956.148 104.064 956.988 103.722 957.672 103.038C958.356 102.33 958.698 101.484 958.698 100.5C958.698 99.504 958.356 98.664 957.672 97.98C956.988 97.284 956.148 96.936 955.152 96.936C954.156 96.936 953.316 97.284 952.632 97.98C951.948 98.664 951.606 99.504 951.606 100.5C951.606 101.484 951.948 102.33 952.632 103.038ZM966.698 95.784C967.982 95.784 969.074 96.24 969.974 97.152C970.886 98.064 971.342 99.18 971.342 100.5C971.342 101.82 970.886 102.936 969.974 103.848C969.074 104.76 967.982 105.216 966.698 105.216C965.102 105.216 963.89 104.556 963.062 103.236V108.6H961.874V96H963.062V97.764C963.89 96.444 965.102 95.784 966.698 95.784ZM964.088 103.038C964.772 103.722 965.612 104.064 966.608 104.064C967.604 104.064 968.444 103.722 969.128 103.038C969.812 102.33 970.154 101.484 970.154 100.5C970.154 99.504 969.812 98.664 969.128 97.98C968.444 97.284 967.604 96.936 966.608 96.936C965.612 96.936 964.772 97.284 964.088 97.98C963.404 98.664 963.062 99.504 963.062 100.5C963.062 101.484 963.404 102.33 964.088 103.038ZM977.476 95.784C978.82 95.784 979.894 96.258 980.698 97.206C981.526 98.142 981.94 99.252 981.94 100.536C981.94 100.596 981.928 100.782 981.904 101.094H974.002C974.122 101.994 974.506 102.714 975.154 103.254C975.802 103.794 976.612 104.064 977.584 104.064C978.952 104.064 979.918 103.554 980.482 102.534L981.526 103.146C981.13 103.794 980.584 104.304 979.888 104.676C979.204 105.036 978.43 105.216 977.566 105.216C976.15 105.216 974.998 104.772 974.11 103.884C973.222 102.996 972.778 101.868 972.778 100.5C972.778 99.144 973.216 98.022 974.092 97.134C974.968 96.234 976.096 95.784 977.476 95.784ZM977.476 96.936C976.54 96.936 975.754 97.212 975.118 97.764C974.494 98.316 974.122 99.042 974.002 99.942H980.716C980.584 98.982 980.218 98.244 979.618 97.728C978.994 97.2 978.28 96.936 977.476 96.936ZM989.553 100.374C990.537 100.734 991.029 101.436 991.029 102.48C991.029 103.224 990.777 103.83 990.273 104.298C989.781 104.766 989.091 105 988.203 105H983.829V96H987.843C988.707 96 989.379 96.222 989.859 96.666C990.351 97.11 990.597 97.692 990.597 98.412C990.597 99.312 990.249 99.966 989.553 100.374ZM987.843 97.152H985.017V99.888H987.843C988.887 99.888 989.409 99.42 989.409 98.484C989.409 98.064 989.271 97.74 988.995 97.512C988.731 97.272 988.347 97.152 987.843 97.152ZM985.017 103.848H988.203C988.731 103.848 989.133 103.722 989.409 103.47C989.697 103.218 989.841 102.864 989.841 102.408C989.841 101.976 989.697 101.64 989.409 101.4C989.133 101.16 988.731 101.04 988.203 101.04H985.017V103.848ZM999.201 99.924V96H1000.39V105H999.201V101.076H994.017V105H992.829V96H994.017V99.924H999.201ZM1010.44 103.866C1009.52 104.766 1008.4 105.216 1007.1 105.216C1005.76 105.216 1004.64 104.766 1003.73 103.866C1002.82 102.954 1002.36 101.832 1002.36 100.5C1002.36 99.168 1002.82 98.052 1003.73 97.152C1004.64 96.24 1005.76 95.784 1007.1 95.784C1008.42 95.784 1009.53 96.24 1010.44 97.152C1011.37 98.052 1011.83 99.168 1011.83 100.5C1011.83 101.82 1011.37 102.942 1010.44 103.866ZM1004.58 103.038C1005.26 103.722 1006.1 104.064 1007.1 104.064C1008.09 104.064 1008.93 103.722 1009.62 103.038C1010.3 102.33 1010.64 101.484 1010.64 100.5C1010.64 99.504 1010.3 98.664 1009.62 97.98C1008.93 97.284 1008.09 96.936 1007.1 96.936C1006.1 96.936 1005.26 97.284 1004.58 97.98C1003.89 98.664 1003.55 99.504 1003.55 100.5C1003.55 101.484 1003.89 102.33 1004.58 103.038ZM1019.54 100.374C1020.53 100.734 1021.02 101.436 1021.02 102.48C1021.02 103.224 1020.77 103.83 1020.26 104.298C1019.77 104.766 1019.08 105 1018.19 105H1013.82V96H1017.83C1018.7 96 1019.37 96.222 1019.85 96.666C1020.34 97.11 1020.59 97.692 1020.59 98.412C1020.59 99.312 1020.24 99.966 1019.54 100.374ZM1017.83 97.152H1015.01V99.888H1017.83C1018.88 99.888 1019.4 99.42 1019.4 98.484C1019.4 98.064 1019.26 97.74 1018.98 97.512C1018.72 97.272 1018.34 97.152 1017.83 97.152ZM1015.01 103.848H1018.19C1018.72 103.848 1019.12 103.722 1019.4 103.47C1019.69 103.218 1019.83 102.864 1019.83 102.408C1019.83 101.976 1019.69 101.64 1019.4 101.4C1019.12 101.16 1018.72 101.04 1018.19 101.04H1015.01V103.848ZM1030.56 97.764V96H1031.75V105H1030.56V103.236C1029.73 104.556 1028.52 105.216 1026.92 105.216C1025.64 105.216 1024.54 104.76 1023.63 103.848C1022.73 102.936 1022.28 101.82 1022.28 100.5C1022.28 99.18 1022.73 98.064 1023.63 97.152C1024.54 96.24 1025.64 95.784 1026.92 95.784C1028.52 95.784 1029.73 96.444 1030.56 97.764ZM1024.49 103.038C1025.18 103.722 1026.02 104.064 1027.01 104.064C1028.01 104.064 1028.85 103.722 1029.53 103.038C1030.22 102.33 1030.56 101.484 1030.56 100.5C1030.56 99.504 1030.22 98.664 1029.53 97.98C1028.85 97.284 1028.01 96.936 1027.01 96.936C1026.02 96.936 1025.18 97.284 1024.49 97.98C1023.81 98.664 1023.47 99.504 1023.47 100.5C1023.47 101.484 1023.81 102.33 1024.49 103.038ZM1040.63 99.924V96H1041.82V105H1040.63V101.076H1035.45V105H1034.26V96H1035.45V99.924H1040.63ZM1045.52 102.93L1050.89 96H1051.89V105H1050.71V98.07L1045.34 105H1044.33V96H1045.52V102.93ZM1057.23 96H1060.89V105H1059.7V101.544H1058.15L1055.38 105H1053.87L1056.71 101.508C1055.98 101.4 1055.38 101.1 1054.91 100.608C1054.45 100.104 1054.23 99.498 1054.23 98.79C1054.23 97.986 1054.51 97.32 1055.09 96.792C1055.69 96.264 1056.4 96 1057.23 96ZM1057.23 100.428H1059.7V97.152H1057.23C1056.72 97.152 1056.28 97.308 1055.94 97.62C1055.59 97.92 1055.41 98.31 1055.41 98.79C1055.41 99.27 1055.59 99.666 1055.94 99.978C1056.28 100.278 1056.72 100.428 1057.23 100.428Z" fill="#2B2B2B"/>
<circle cx="1061" cy="20" r="20" fill="#FAC1FB"/>
<path d="M1061.15 27.35C1060.74 27.35 1060.4 27.01 1060.4 26.6V24.5C1060.4 24.09 1060.74 23.75 1061.15 23.75C1061.56 23.75 1061.9 24.09 1061.9 24.5V26.6C1061.9 27.01 1061.56 27.35 1061.15 27.35Z" fill="#2B2B2B"/>
<path d="M1066.9 30.75H1055.4V29C1055.4 27.48 1056.63 26.25 1058.15 26.25H1064.15C1065.67 26.25 1066.9 27.48 1066.9 29V30.75ZM1056.9 29.25H1065.4V29C1065.4 28.31 1064.84 27.75 1064.15 27.75H1058.15C1057.46 27.75 1056.9 28.31 1056.9 29V29.25Z" fill="#2B2B2B"/>
<path d="M1067.15 30.75H1055.15C1054.74 30.75 1054.4 30.41 1054.4 30C1054.4 29.59 1054.74 29.25 1055.15 29.25H1067.15C1067.56 29.25 1067.9 29.59 1067.9 30C1067.9 30.41 1067.56 30.75 1067.15 30.75Z" fill="#2B2B2B"/>
<path d="M1067.43 20.4405C1067.22 20.4405 1067.01 20.3505 1066.86 20.1805C1066.67 19.9605 1066.62 19.6505 1066.74 19.3905C1067.08 18.6105 1067.25 17.7805 1067.25 16.9105V13.9105C1067.25 13.5605 1067.19 13.2205 1067.07 12.8605C1067.06 12.8305 1067.05 12.7905 1067.04 12.7505C1067.01 12.6005 1067 12.4505 1067 12.3105C1067 11.9005 1067.34 11.5605 1067.75 11.5605H1068.35C1070.14 11.5605 1071.6 13.0605 1071.6 14.9105C1071.6 16.4405 1070.97 17.9505 1069.88 19.0405C1069.86 19.0605 1069.8 19.1105 1069.79 19.1205C1069.2 19.6105 1068.53 20.1605 1067.63 20.4105C1067.56 20.4305 1067.5 20.4405 1067.43 20.4405ZM1068.68 13.0905C1068.73 13.3605 1068.75 13.6405 1068.75 13.9105V16.9105C1068.75 17.3205 1068.72 17.7105 1068.66 18.1105C1068.72 18.0605 1068.77 18.0205 1068.83 17.9705C1069.63 17.1705 1070.1 16.0505 1070.1 14.9105C1070.1 14.0105 1069.49 13.2505 1068.68 13.0905Z" fill="#2B2B2B"/>
<path d="M1054.58 20.3996C1054.5 20.3996 1054.43 20.3896 1054.35 20.3596C1053.53 20.0996 1052.76 19.6196 1052.12 18.9796C1050.97 17.7096 1050.4 16.3196 1050.4 14.8496C1050.4 13.0296 1051.83 11.5996 1053.65 11.5996H1054.3C1054.55 11.5996 1054.79 11.7296 1054.93 11.9396C1055.07 12.1496 1055.09 12.4196 1054.99 12.6496C1054.83 13.0096 1054.75 13.4196 1054.75 13.8496V16.8496C1054.75 17.7096 1054.92 18.5496 1055.27 19.3496C1055.39 19.6196 1055.33 19.9296 1055.14 20.1496C1054.99 20.3096 1054.79 20.3996 1054.58 20.3996ZM1053.3 13.1296C1052.49 13.2896 1051.9 13.9896 1051.9 14.8496C1051.9 15.9396 1052.34 16.9896 1053.21 17.9496C1053.25 17.9996 1053.3 18.0396 1053.35 18.0796C1053.28 17.6696 1053.25 17.2596 1053.25 16.8496V13.8496C1053.25 13.6096 1053.27 13.3696 1053.3 13.1296Z" fill="#2B2B2B"/>
<path d="M1061 24.75C1056.73 24.75 1053.25 21.27 1053.25 17V14C1053.25 11.38 1055.38 9.25 1058 9.25H1064C1066.62 9.25 1068.75 11.38 1068.75 14V17C1068.75 21.27 1065.27 24.75 1061 24.75ZM1058 10.75C1056.21 10.75 1054.75 12.21 1054.75 14V17C1054.75 20.45 1057.55 23.25 1061 23.25C1064.45 23.25 1067.25 20.45 1067.25 17V14C1067.25 12.21 1065.79 10.75 1064 10.75H1058Z" fill="#2B2B2B"/>
<defs>
<linearGradient id="paint0_linear_425_535" x1="8.14536" y1="352.786" x2="108.679" y2="446.826" gradientUnits="userSpaceOnUse">
<stop stop-color="#F8D6E4"/>
<stop offset="0.427083" stop-color="#FAC1FB"/>
<stop offset="1" stop-color="#B6E1FE"/>
</linearGradient>
<linearGradient id="paint1_linear_425_535" x1="168.145" y1="292.786" x2="268.679" y2="386.826" gradientUnits="userSpaceOnUse">
<stop stop-color="#F8D6E4"/>
<stop offset="0.427083" stop-color="#FAC1FB"/>
<stop offset="1" stop-color="#B6E1FE"/>
</linearGradient>
<linearGradient id="paint2_linear_425_535" x1="330.825" y1="232.786" x2="428.473" y2="358.38" gradientUnits="userSpaceOnUse">
<stop stop-color="#F8D6E4"/>
<stop offset="0.427083" stop-color="#FAC1FB"/>
<stop offset="1" stop-color="#B6E1FE"/>
</linearGradient>
<linearGradient id="paint3_linear_425_535" x1="548.145" y1="172.786" x2="648.679" y2="266.826" gradientUnits="userSpaceOnUse">
<stop stop-color="#F8D6E4"/>
<stop offset="0.427083" stop-color="#FAC1FB"/>
<stop offset="1" stop-color="#B6E1FE"/>
</linearGradient>
<linearGradient id="paint4_linear_425_535" x1="710.825" y1="112.786" x2="808.473" y2="238.38" gradientUnits="userSpaceOnUse">
<stop stop-color="#F8D6E4"/>
<stop offset="0.427083" stop-color="#FAC1FB"/>
<stop offset="1" stop-color="#B6E1FE"/>
</linearGradient>
<linearGradient id="paint5_linear_425_535" x1="928.145" y1="52.7857" x2="1028.68" y2="146.826" gradientUnits="userSpaceOnUse">
<stop stop-color="#F8D6E4"/>
<stop offset="0.427083" stop-color="#FAC1FB"/>
<stop offset="1" stop-color="#B6E1FE"/>
</linearGradient>
</defs>
</svg>
