<svg width="50" height="50" viewBox="0 0 50 50" fill="none" xmlns="http://www.w3.org/2000/svg">
<circle cx="25" cy="25" r="24.5" fill="#FCF7F4" stroke="#FCF7F4"/>
<g clip-path="url(#clip0_65_1258)">
<rect width="22.5" height="22.5" transform="translate(13.75 13.75)" fill="#FCF7F4"/>
<path fill-rule="evenodd" clip-rule="evenodd" d="M33.1145 26.729C33.8608 27.4577 34.6486 28.1433 35.318 28.9454C35.6137 29.3019 35.8936 29.6698 36.1078 30.0834C36.4112 30.6715 36.1364 31.3187 35.6091 31.3538L32.3312 31.3523C31.4858 31.4225 30.8114 31.0821 30.2443 30.5041C29.7905 30.0418 29.3702 29.5499 28.9338 29.072C28.7549 28.8767 28.5677 28.6929 28.344 28.5476C27.8965 28.2572 27.5081 28.3461 27.2524 28.8128C26.9919 29.2875 26.9329 29.8131 26.9073 30.3421C26.8722 31.114 26.6389 31.3169 25.8635 31.3522C24.2066 31.4304 22.634 31.1797 21.1732 30.3438C19.8852 29.6069 18.8865 28.5666 18.0172 27.3889C16.3247 25.0957 15.0286 22.5758 13.8636 19.9853C13.6014 19.4016 13.7932 19.0883 14.4371 19.0773C15.5065 19.0565 16.5757 19.058 17.6463 19.0758C18.0809 19.0821 18.3686 19.3314 18.5364 19.742C19.1149 21.1645 19.8229 22.518 20.7114 23.7725C20.9481 24.1065 21.1894 24.4405 21.533 24.6756C21.9131 24.9359 22.2025 24.8496 22.3813 24.4261C22.4948 24.1576 22.5445 23.8684 22.5701 23.5809C22.6548 22.5915 22.666 21.6039 22.5174 20.618C22.4261 20.0027 22.0796 19.6044 21.4656 19.488C21.1523 19.4286 21.199 19.312 21.3507 19.1332C21.6141 18.8248 21.8619 18.6328 22.3559 18.6328H26.0604C26.6436 18.7479 26.7731 19.0099 26.853 19.5967L26.8561 23.7117C26.8498 23.9388 26.9696 24.613 27.3788 24.7633C27.7063 24.8704 27.9221 24.6084 28.1186 24.4007C29.0056 23.4593 29.6386 22.3468 30.2042 21.1949C30.4551 20.6883 30.6709 20.1623 30.8801 19.6366C31.035 19.2466 31.2781 19.0547 31.7175 19.0632L35.2828 19.0664C35.3886 19.0664 35.4955 19.0679 35.5979 19.0855C36.1987 19.1878 36.3633 19.4463 36.1778 20.033C35.8854 20.9534 35.3166 21.7205 34.7603 22.4911C34.1658 23.3138 33.5298 24.1083 32.9402 24.9359C32.3985 25.6917 32.4415 26.0726 33.1145 26.729Z" fill="url(#paint0_linear_65_1258)"/>
</g>
<defs>
<linearGradient id="paint0_linear_65_1258" x1="14.7548" y1="19.224" x2="33.9048" y2="31.0942" gradientUnits="userSpaceOnUse">
<stop stop-color="#F8D6E4"/>
<stop offset="0.427083" stop-color="#FAC1FB"/>
<stop offset="1" stop-color="#B6E1FE"/>
</linearGradient>
<clipPath id="clip0_65_1258">
<rect width="22.5" height="22.5" fill="white" transform="translate(13.75 13.75)"/>
</clipPath>
</defs>
</svg>
