<svg width="20" height="20" viewBox="0 0 20 20" fill="none" xmlns="http://www.w3.org/2000/svg">
<circle cx="10" cy="10" r="10" fill="#FCF7F4"/>
<path d="M14.5633 6.06766C14.1121 5.82468 13.6087 6.29329 13.3137 6.57098C12.6368 7.2305 12.0641 7.99416 11.4219 8.68839C10.7103 9.45204 10.0508 10.2157 9.32186 10.962C8.90532 11.3786 8.45407 11.8298 8.17638 12.3505C7.55157 11.743 7.01354 11.0835 6.31931 10.5455C5.81599 10.1637 4.98291 9.88597 5.00027 10.8058C5.03498 12.0034 6.09368 13.2877 6.87469 14.1034C7.20445 14.4505 7.63835 14.815 8.14166 14.8324C8.74912 14.8671 9.37392 14.1381 9.7384 13.739C10.3806 13.0447 10.9013 12.2637 11.4913 11.5521C12.255 10.6149 13.036 9.69503 13.7823 8.74046C14.2509 8.15036 15.7261 6.69244 14.5633 6.06766ZM5.76389 10.7364C5.74654 10.7364 5.72918 10.7364 5.69447 10.7537C5.62505 10.7364 5.57298 10.719 5.50356 10.6843C5.55562 10.6496 5.6424 10.667 5.76389 10.7364Z" fill="#9E1981"/>
</svg>
